<?xml version="1.0" encoding="UTF-8"?>
<!DOCTYPE svg PUBLIC "-//W3C//DTD SVG 1.1//EN"
    "http://www.w3.org/Graphics/SVG/1.1/DTD/svg11.dtd"><svg xmlns="http://www.w3.org/2000/svg" height="1000.0000" stroke-opacity="1" viewBox="0 0 1000 1000" font-size="1" width="1000.0000" xmlns:xlink="http://www.w3.org/1999/xlink" stroke="rgb(0,0,0)" version="1.1"><defs></defs><g stroke-linejoin="miter" stroke-opacity="1.0" fill-opacity="1.0" stroke="rgb(0,0,0)" stroke-width="1.613893169571858" fill="rgb(255,0,0)" stroke-linecap="butt" stroke-miterlimit="10.0"><path d="M 918.6047,476.7442 c 0.0000,-32.1096 -26.0300,-58.1395 -58.1395 -58.1395c -32.1096,-0.0000 -58.1395,26.0300 -58.1395 58.1395c -0.0000,32.1096 26.0300,58.1395 58.1395 58.1395c 32.1096,0.0000 58.1395,-26.0300 58.1395 -58.1395Z"/></g><g stroke-linejoin="miter" stroke-opacity="1.0" fill-opacity="1.0" stroke="rgb(0,0,0)" stroke-width="1.613893169571858" fill="rgb(0,0,255)" stroke-linecap="butt" stroke-miterlimit="10.0"><path d="M 802.3256,488.3721 c 0.0000,-38.5315 -31.2359,-69.7674 -69.7674 -69.7674c -38.5315,-0.0000 -69.7674,31.2359 -69.7674 69.7674c -0.0000,38.5315 31.2359,69.7674 69.7674 69.7674c 38.5315,0.0000 69.7674,-31.2359 69.7674 -69.7674Z"/></g><g stroke-linejoin="miter" stroke-opacity="1.0" fill-opacity="1.0" stroke="rgb(0,0,0)" stroke-width="1.613893169571858" fill="rgb(255,165,0)" stroke-linecap="butt" stroke-miterlimit="10.0"><path d="M 662.7907,500.0000 c 0.0000,-44.9534 -36.4419,-81.3953 -81.3953 -81.3953c -44.9534,-0.0000 -81.3953,36.4419 -81.3953 81.3953c -0.0000,44.9534 36.4419,81.3953 81.3953 81.3953c 44.9534,0.0000 81.3953,-36.4419 81.3953 -81.3953Z"/></g><g stroke-linejoin="miter" stroke-opacity="1.0" fill-opacity="1.0" stroke="rgb(0,0,0)" stroke-width="1.613893169571858" fill="rgb(0,128,0)" stroke-linecap="butt" stroke-miterlimit="10.0"><path d="M 500.0000,488.3721 c 0.0000,-38.5315 -31.2359,-69.7674 -69.7674 -69.7674c -38.5315,-0.0000 -69.7674,31.2359 -69.7674 69.7674c -0.0000,38.5315 31.2359,69.7674 69.7674 69.7674c 38.5315,0.0000 69.7674,-31.2359 69.7674 -69.7674Z"/></g><g stroke-linejoin="miter" stroke-opacity="1.0" fill-opacity="1.0" stroke="rgb(0,0,0)" stroke-width="1.613893169571858" fill="rgb(75,0,130)" stroke-linecap="butt" stroke-miterlimit="10.0"><path d="M 360.4651,476.7442 c 0.0000,-32.1096 -26.0300,-58.1395 -58.1395 -58.1395c -32.1096,-0.0000 -58.1395,26.0300 -58.1395 58.1395c -0.0000,32.1096 26.0300,58.1395 58.1395 58.1395c 32.1096,0.0000 58.1395,-26.0300 58.1395 -58.1395Z"/></g><g stroke-linejoin="miter" stroke-opacity="1.0" fill-opacity="1.0" stroke="rgb(0,0,0)" stroke-width="1.613893169571858" fill="rgb(255,255,0)" stroke-linecap="butt" stroke-miterlimit="10.0"><path d="M 244.1860,465.1163 c 0.0000,-25.6877 -20.8240,-46.5116 -46.5116 -46.5116c -25.6877,-0.0000 -46.5116,20.8240 -46.5116 46.5116c -0.0000,25.6877 20.8240,46.5116 46.5116 46.5116c 25.6877,0.0000 46.5116,-20.8240 46.5116 -46.5116Z"/></g><g stroke-linejoin="miter" stroke-opacity="1.0" fill-opacity="1.0" stroke="rgb(0,0,0)" stroke-width="1.613893169571858" fill="rgb(238,130,238)" stroke-linecap="butt" stroke-miterlimit="10.0"><path d="M 151.1628,453.4884 c 0.0000,-19.2657 -15.6180,-34.8837 -34.8837 -34.8837c -19.2657,-0.0000 -34.8837,15.6180 -34.8837 34.8837c -0.0000,19.2657 15.6180,34.8837 34.8837 34.8837c 19.2657,0.0000 34.8837,-15.6180 34.8837 -34.8837Z"/></g><g stroke-linejoin="miter" stroke-opacity="1.0" fill-opacity="0.0" stroke="rgb(0,0,0)" stroke-width="1.613893169571858" fill="rgb(0,0,0)" stroke-linecap="butt" stroke-miterlimit="10.0"><path d="M 0.0000,418.6047 h 1000.0000 "/></g></svg>