<?xml version="1.0" encoding="UTF-8"?>
<!DOCTYPE svg PUBLIC "-//W3C//DTD SVG 1.1//EN"
    "http://www.w3.org/Graphics/SVG/1.1/DTD/svg11.dtd"><svg xmlns="http://www.w3.org/2000/svg" height="1000.0000" stroke-opacity="1" viewBox="0 0 1000 1000" font-size="1" width="1000.0000" xmlns:xlink="http://www.w3.org/1999/xlink" stroke="rgb(0,0,0)" version="1.1"><defs></defs><g stroke-linejoin="miter" stroke-opacity="1.0" fill-opacity="1.0" stroke="rgb(0,0,0)" stroke-width="0.0" fill="rgb(255,255,255)" stroke-linecap="butt" stroke-miterlimit="10.0"><path d="M 1000.0000,1000.0000 l -0.0000,-1000.0000 h -1000.0000 l -0.0000,1000.0000 Z"/></g><g stroke-linejoin="miter" stroke-opacity="1.0" fill-opacity="1.0" stroke="rgb(0,0,0)" stroke-width="4.0" fill="rgb(255,255,0)" stroke-linecap="butt" stroke-miterlimit="10.0"><path d="M 968.7500,500.0000 c 0.0000,-258.8835 -209.8665,-468.7500 -468.7500 -468.7500c -258.8835,-0.0000 -468.7500,209.8665 -468.7500 468.7500c -0.0000,258.8835 209.8665,468.7500 468.7500 468.7500c 258.8835,0.0000 468.7500,-209.8665 468.7500 -468.7500Z"/></g><g stroke-linejoin="miter" stroke-opacity="1.0" fill-opacity="0.0" stroke="rgb(0,0,0)" stroke-width="4.0" fill="rgb(0,0,0)" stroke-linecap="butt" stroke-miterlimit="10.0"><path d="M 590.3325,525.0000 c 103.6370,59.8348 231.3230,59.8348 334.9600 -0.0000"/></g><g stroke-linejoin="miter" stroke-opacity="1.0" fill-opacity="1.0" stroke="rgb(0,0,0)" stroke-width="0.0" fill="rgb(0,0,0)" stroke-linecap="butt" stroke-miterlimit="10.0"><path d="M 547.0312,500.0000 c 28.5293,16.4714 60.3496,7.9452 60.3496 7.9452l -17.5557,16.7619 l -42.7940,-24.7071 c 28.5293,16.4714 37.0555,48.2917 37.0555 48.2917l 5.7384,-23.5846 Z"/></g><g stroke-linejoin="miter" stroke-opacity="1.0" fill-opacity="1.0" stroke="rgb(0,0,0)" stroke-width="0.0" fill="rgb(0,0,0)" stroke-linecap="butt" stroke-miterlimit="10.0"><path d="M 589.8252,524.7071 l 0.5073,0.2929 l 1.0000,-1.7321 l -1.5073,1.4392 l 0.5073,0.2929 l -1.0000,1.7321 Z"/></g><g stroke-linejoin="miter" stroke-opacity="1.0" fill-opacity="1.0" stroke="rgb(0,0,0)" stroke-width="0.0" fill="rgb(0,0,0)" stroke-linecap="butt" stroke-miterlimit="10.0"><path d="M 968.5938,500.0000 c -28.5293,16.4714 -60.3496,7.9452 -60.3496 7.9452l 17.5557,16.7619 l 42.7940,-24.7071 c -28.5293,16.4714 -37.0555,48.2917 -37.0555 48.2917l -5.7384,-23.5846 Z"/></g><g stroke-linejoin="miter" stroke-opacity="1.0" fill-opacity="1.0" stroke="rgb(0,0,0)" stroke-width="0.0" fill="rgb(0,0,0)" stroke-linecap="butt" stroke-miterlimit="10.0"><path d="M 925.7998,524.7071 l -0.5073,0.2929 l -1.0000,-1.7321 l 1.5073,1.4392 l -0.5073,0.2929 l 1.0000,1.7321 Z"/></g><g stroke-linejoin="miter" stroke-opacity="1.0" fill-opacity="0.0" stroke="rgb(0,0,0)" stroke-width="4.0" fill="rgb(0,0,0)" stroke-linecap="butt" stroke-miterlimit="10.0"><path d="M 572.3544,559.5802 c 70.3401,96.8148 186.9870,148.7494 306.0012 136.2405"/></g><g stroke-linejoin="miter" stroke-opacity="1.0" fill-opacity="1.0" stroke="rgb(0,0,0)" stroke-width="0.0" fill="rgb(0,0,0)" stroke-linecap="butt" stroke-miterlimit="10.0"><path d="M 542.9652,519.1293 c 19.3633,26.6513 51.9005,31.8047 51.9005 31.8047l -22.8556,8.1723 l -29.0449,-39.9769 c 19.3633,26.6513 14.2099,59.1885 14.2099 59.1885l 14.8350,-19.2116 Z"/></g><g stroke-linejoin="miter" stroke-opacity="1.0" fill-opacity="1.0" stroke="rgb(0,0,0)" stroke-width="0.0" fill="rgb(0,0,0)" stroke-linecap="butt" stroke-miterlimit="10.0"><path d="M 572.0101,559.1063 l 0.3443,0.4739 l 1.6180,-1.1756 l -1.9624,0.7017 l 0.3443,0.4739 l -1.6180,1.1756 Z"/></g><g stroke-linejoin="miter" stroke-opacity="1.0" fill-opacity="1.0" stroke="rgb(0,0,0)" stroke-width="0.0" fill="rgb(0,0,0)" stroke-linecap="butt" stroke-miterlimit="10.0"><path d="M 928.0817,690.5942 c -32.7623,3.4435 -58.3637,-17.2881 -58.3637 -17.2881l 9.2202,22.4533 l 49.1435,-5.1652 c -32.7623,3.4435 -53.4939,29.0448 -53.4939 29.0448l 4.3504,-23.8796 Z"/></g><g stroke-linejoin="miter" stroke-opacity="1.0" fill-opacity="1.0" stroke="rgb(0,0,0)" stroke-width="0.0" fill="rgb(0,0,0)" stroke-linecap="butt" stroke-miterlimit="10.0"><path d="M 878.9382,695.7594 l -0.5826,0.0612 l -0.2091,-1.9890 l 0.7916,1.9278 l -0.5826,0.0612 l 0.2091,1.9890 Z"/></g><g stroke-linejoin="miter" stroke-opacity="1.0" fill-opacity="0.0" stroke="rgb(0,0,0)" stroke-width="4.0" fill="rgb(0,0,0)" stroke-linecap="butt" stroke-miterlimit="10.0"><path d="M 541.8656,583.8584 c 24.8807,117.0546 110.3193,211.9438 224.1320 248.9238"/></g><g stroke-linejoin="miter" stroke-opacity="1.0" fill-opacity="1.0" stroke="rgb(0,0,0)" stroke-width="0.0" fill="rgb(0,0,0)" stroke-linecap="butt" stroke-miterlimit="10.0"><path d="M 531.4700,534.9510 c 6.8492,32.2229 34.4774,50.1649 34.4774 50.1649l -24.2036,-1.8305 l -10.2738,-48.3344 c 6.8492,32.2229 -11.0927,59.8511 -11.0927 59.8511l 21.3665,-11.5167 Z"/></g><g stroke-linejoin="miter" stroke-opacity="1.0" fill-opacity="1.0" stroke="rgb(0,0,0)" stroke-width="0.0" fill="rgb(0,0,0)" stroke-linecap="butt" stroke-miterlimit="10.0"><path d="M 541.7438,583.2854 l 0.1218,0.5730 l 1.9563,-0.4158 l -2.0781,-0.1572 l 0.1218,0.5730 l -1.9563,0.4158 Z"/></g><g stroke-linejoin="miter" stroke-opacity="1.0" fill-opacity="1.0" stroke="rgb(0,0,0)" stroke-width="0.0" fill="rgb(0,0,0)" stroke-linecap="butt" stroke-miterlimit="10.0"><path d="M 813.5504,848.2330 c -31.3305,-10.1799 -46.2862,-39.5321 -46.2862 -39.5321l -0.7095,24.2623 l 46.9957,15.2698 c -31.3305,-10.1799 -60.6827,4.7758 -60.6827 4.7758l 13.6870,-20.0457 Z"/></g><g stroke-linejoin="miter" stroke-opacity="1.0" fill-opacity="1.0" stroke="rgb(0,0,0)" stroke-width="0.0" fill="rgb(0,0,0)" stroke-linecap="butt" stroke-miterlimit="10.0"><path d="M 766.5547,832.9632 l -0.5571,-0.1810 l 0.6180,-1.9021 l -0.0609,2.0831 l -0.5571,-0.1810 l -0.6180,1.9021 Z"/></g><g stroke-linejoin="miter" stroke-opacity="1.0" fill-opacity="0.0" stroke="rgb(0,0,0)" stroke-width="4.0" fill="rgb(0,0,0)" stroke-linecap="butt" stroke-miterlimit="10.0"><path d="M 504.1379,593.6368 c -24.8807,117.0546 14.5764,238.4912 103.5083 318.5659"/></g><g stroke-linejoin="miter" stroke-opacity="1.0" fill-opacity="1.0" stroke="rgb(0,0,0)" stroke-width="0.0" fill="rgb(0,0,0)" stroke-linecap="butt" stroke-miterlimit="10.0"><path d="M 514.5335,544.7294 c -6.8492,32.2229 11.0927,59.8511 11.0927 59.8511l -21.3665,-11.5167 l 10.2738,-48.3344 c -6.8492,32.2229 -34.4774,50.1649 -34.4774 50.1649l 24.2036,-1.8305 Z"/></g><g stroke-linejoin="miter" stroke-opacity="1.0" fill-opacity="1.0" stroke="rgb(0,0,0)" stroke-width="0.0" fill="rgb(0,0,0)" stroke-linecap="butt" stroke-miterlimit="10.0"><path d="M 504.2597,593.0638 l -0.1218,0.5730 l 1.9563,0.4158 l -1.8345,-0.9888 l -0.1218,0.5730 l -1.9563,-0.4158 Z"/></g><g stroke-linejoin="miter" stroke-opacity="1.0" fill-opacity="1.0" stroke="rgb(0,0,0)" stroke-width="0.0" fill="rgb(0,0,0)" stroke-linecap="butt" stroke-miterlimit="10.0"><path d="M 644.8034,945.6591 c -24.4813,-22.0430 -26.2054,-54.9407 -26.2054 -54.9407l -10.5165,21.8761 l 36.7219,33.0646 c -24.4813,-22.0430 -57.3789,-20.3189 -57.3789 -20.3189l 20.6570,-12.7456 Z"/></g><g stroke-linejoin="miter" stroke-opacity="1.0" fill-opacity="1.0" stroke="rgb(0,0,0)" stroke-width="0.0" fill="rgb(0,0,0)" stroke-linecap="butt" stroke-miterlimit="10.0"><path d="M 608.0815,912.5946 l -0.4353,-0.3920 l 1.3383,-1.4863 l -0.9029,1.8783 l -0.4353,-0.3920 l -1.3383,1.4863 Z"/></g><g stroke-linejoin="miter" stroke-opacity="1.0" fill-opacity="0.0" stroke="rgb(0,0,0)" stroke-width="4.0" fill="rgb(0,0,0)" stroke-linecap="butt" stroke-miterlimit="10.0"><path d="M 465.6946,587.2245 c -70.3401,96.8148 -83.6869,223.8013 -35.0128 333.1250"/></g><g stroke-linejoin="miter" stroke-opacity="1.0" fill-opacity="1.0" stroke="rgb(0,0,0)" stroke-width="0.0" fill="rgb(0,0,0)" stroke-linecap="butt" stroke-miterlimit="10.0"><path d="M 495.0839,546.7736 c -19.3633,26.6513 -14.2099,59.1885 -14.2099 59.1885l -14.8350,-19.2116 l 29.0449,-39.9769 c -19.3633,26.6513 -51.9005,31.8047 -51.9005 31.8047l 22.8556,8.1723 Z"/></g><g stroke-linejoin="miter" stroke-opacity="1.0" fill-opacity="1.0" stroke="rgb(0,0,0)" stroke-width="0.0" fill="rgb(0,0,0)" stroke-linecap="butt" stroke-miterlimit="10.0"><path d="M 466.0389,586.7505 l -0.3443,0.4739 l 1.6180,1.1756 l -1.2737,-1.6495 l -0.3443,0.4739 l -1.6180,-1.1756 Z"/></g><g stroke-linejoin="miter" stroke-opacity="1.0" fill-opacity="1.0" stroke="rgb(0,0,0)" stroke-width="0.0" fill="rgb(0,0,0)" stroke-linecap="butt" stroke-miterlimit="10.0"><path d="M 451.0186,966.0267 c -13.3990,-30.0948 -1.5934,-60.8495 -1.5934 -60.8495l -18.5052,15.7074 l 20.0986,45.1421 c -13.3990,-30.0948 -44.1538,-41.9004 -44.1538 -41.9004l 24.0552,-3.2417 Z"/></g><g stroke-linejoin="miter" stroke-opacity="1.0" fill-opacity="1.0" stroke="rgb(0,0,0)" stroke-width="0.0" fill="rgb(0,0,0)" stroke-linecap="butt" stroke-miterlimit="10.0"><path d="M 430.9200,920.8846 l -0.2383,-0.5351 l 1.8271,-0.8135 l -1.5888,1.3486 l -0.2383,-0.5351 l -1.8271,0.8135 Z"/></g><g stroke-linejoin="miter" stroke-opacity="1.0" fill-opacity="0.0" stroke="rgb(0,0,0)" stroke-width="4.0" fill="rgb(0,0,0)" stroke-linecap="butt" stroke-miterlimit="10.0"><path d="M 433.1831,565.7303 c -103.6370,59.8348 -167.4800,170.4142 -167.4800 290.0838"/></g><g stroke-linejoin="miter" stroke-opacity="1.0" fill-opacity="1.0" stroke="rgb(0,0,0)" stroke-width="0.0" fill="rgb(0,0,0)" stroke-linecap="butt" stroke-miterlimit="10.0"><path d="M 476.4844,540.7303 c -28.5293,16.4714 -37.0555,48.2917 -37.0555 48.2917l -5.7384,-23.5846 l 42.7940,-24.7071 c -28.5293,16.4714 -60.3496,7.9452 -60.3496 7.9452l 17.5557,16.7619 Z"/></g><g stroke-linejoin="miter" stroke-opacity="1.0" fill-opacity="1.0" stroke="rgb(0,0,0)" stroke-width="0.0" fill="rgb(0,0,0)" stroke-linecap="butt" stroke-miterlimit="10.0"><path d="M 433.6904,565.4374 l -0.5073,0.2929 l 1.0000,1.7321 l -0.4927,-2.0249 l -0.5073,0.2929 l -1.0000,-1.7321 Z"/></g><g stroke-linejoin="miter" stroke-opacity="1.0" fill-opacity="1.0" stroke="rgb(0,0,0)" stroke-width="0.0" fill="rgb(0,0,0)" stroke-linecap="butt" stroke-miterlimit="10.0"><path d="M 265.7031,905.8141 c -0.0000,-32.9428 23.2941,-56.2369 23.2941 -56.2369l -23.2941,6.8227 l 0.0000,49.4142 c -0.0000,-32.9428 -23.2941,-56.2369 -23.2941 -56.2369l 23.2941,6.8227 Z"/></g><g stroke-linejoin="miter" stroke-opacity="1.0" fill-opacity="1.0" stroke="rgb(0,0,0)" stroke-width="0.0" fill="rgb(0,0,0)" stroke-linecap="butt" stroke-miterlimit="10.0"><path d="M 265.7031,856.3999 l -0.0000,-0.5858 l 2.0000,-0.0000 l -2.0000,0.5858 l -0.0000,-0.5858 l -2.0000,0.0000 Z"/></g><g stroke-linejoin="miter" stroke-opacity="1.0" fill-opacity="0.0" stroke="rgb(0,0,0)" stroke-width="4.0" fill="rgb(0,0,0)" stroke-linecap="butt" stroke-miterlimit="10.0"><path d="M 412.2248,532.8707 c -119.0141,12.5089 -222.3143,87.5608 -270.9883 196.8845"/></g><g stroke-linejoin="miter" stroke-opacity="1.0" fill-opacity="1.0" stroke="rgb(0,0,0)" stroke-width="0.0" fill="rgb(0,0,0)" stroke-linecap="butt" stroke-miterlimit="10.0"><path d="M 461.9509,527.6443 c -32.7623,3.4435 -53.4939,29.0448 -53.4939 29.0448l 4.3504,-23.8796 l 49.1435,-5.1652 c -32.7623,3.4435 -58.3637,-17.2881 -58.3637 -17.2881l 9.2202,22.4533 Z"/></g><g stroke-linejoin="miter" stroke-opacity="1.0" fill-opacity="1.0" stroke="rgb(0,0,0)" stroke-width="0.0" fill="rgb(0,0,0)" stroke-linecap="butt" stroke-miterlimit="10.0"><path d="M 412.8074,532.8095 l -0.5826,0.0612 l 0.2091,1.9890 l 0.3735,-2.0503 l -0.5826,0.0612 l -0.2091,-1.9890 Z"/></g><g stroke-linejoin="miter" stroke-opacity="1.0" fill-opacity="1.0" stroke="rgb(0,0,0)" stroke-width="0.0" fill="rgb(0,0,0)" stroke-linecap="butt" stroke-miterlimit="10.0"><path d="M 120.8997,775.4325 c 13.3990,-30.0948 44.1538,-41.9004 44.1538 -41.9004l -24.0552,-3.2417 l -20.0986,45.1421 c 13.3990,-30.0948 1.5934,-60.8495 1.5934 -60.8495l 18.5052,15.7074 Z"/></g><g stroke-linejoin="miter" stroke-opacity="1.0" fill-opacity="1.0" stroke="rgb(0,0,0)" stroke-width="0.0" fill="rgb(0,0,0)" stroke-linecap="butt" stroke-miterlimit="10.0"><path d="M 140.9983,730.2904 l 0.2383,-0.5351 l 1.8271,0.8135 l -2.0654,-0.2783 l 0.2383,-0.5351 l -1.8271,-0.8135 Z"/></g><g stroke-linejoin="miter" stroke-opacity="1.0" fill-opacity="0.0" stroke="rgb(0,0,0)" stroke-width="4.0" fill="rgb(0,0,0)" stroke-linecap="butt" stroke-miterlimit="10.0"><path d="M 406.4437,494.3275 c -113.8126,-36.9800 -238.7084,-10.4325 -327.6403 69.6421"/></g><g stroke-linejoin="miter" stroke-opacity="1.0" fill-opacity="1.0" stroke="rgb(0,0,0)" stroke-width="0.0" fill="rgb(0,0,0)" stroke-linecap="butt" stroke-miterlimit="10.0"><path d="M 453.9965,509.7783 c -31.3305,-10.1799 -60.6827,4.7758 -60.6827 4.7758l 13.6870,-20.0457 l 46.9957,15.2698 c -31.3305,-10.1799 -46.2862,-39.5321 -46.2862 -39.5321l -0.7095,24.2623 Z"/></g><g stroke-linejoin="miter" stroke-opacity="1.0" fill-opacity="1.0" stroke="rgb(0,0,0)" stroke-width="0.0" fill="rgb(0,0,0)" stroke-linecap="butt" stroke-miterlimit="10.0"><path d="M 407.0008,494.5085 l -0.5571,-0.1810 l -0.6180,1.9021 l 1.1751,-1.7211 l -0.5571,-0.1810 l 0.6180,-1.9021 Z"/></g><g stroke-linejoin="miter" stroke-opacity="1.0" fill-opacity="1.0" stroke="rgb(0,0,0)" stroke-width="0.0" fill="rgb(0,0,0)" stroke-linecap="butt" stroke-miterlimit="10.0"><path d="M 41.6461,597.4261 c 24.4813,-22.0430 57.3789,-20.3189 57.3789 -20.3189l -20.6570,-12.7456 l -36.7219,33.0646 c 24.4813,-22.0430 26.2054,-54.9407 26.2054 -54.9407l 10.5165,21.8761 Z"/></g><g stroke-linejoin="miter" stroke-opacity="1.0" fill-opacity="1.0" stroke="rgb(0,0,0)" stroke-width="0.0" fill="rgb(0,0,0)" stroke-linecap="butt" stroke-miterlimit="10.0"><path d="M 78.3681,564.3616 l 0.4353,-0.3920 l 1.3383,1.4863 l -1.7736,-1.0943 l 0.4353,-0.3920 l -1.3383,-1.4863 Z"/></g><g stroke-linejoin="miter" stroke-opacity="1.0" fill-opacity="0.0" stroke="rgb(0,0,0)" stroke-width="4.0" fill="rgb(0,0,0)" stroke-linecap="butt" stroke-miterlimit="10.0"><path d="M 416.8393,456.7651 c -88.9319,-80.0746 -213.8277,-106.6221 -327.6403 -69.6421"/></g><g stroke-linejoin="miter" stroke-opacity="1.0" fill-opacity="1.0" stroke="rgb(0,0,0)" stroke-width="0.0" fill="rgb(0,0,0)" stroke-linecap="butt" stroke-miterlimit="10.0"><path d="M 453.9965,490.2217 c -24.4813,-22.0430 -57.3789,-20.3189 -57.3789 -20.3189l 20.6570,-12.7456 l 36.7219,33.0646 c -24.4813,-22.0430 -26.2054,-54.9407 -26.2054 -54.9407l -10.5165,21.8761 Z"/></g><g stroke-linejoin="miter" stroke-opacity="1.0" fill-opacity="1.0" stroke="rgb(0,0,0)" stroke-width="0.0" fill="rgb(0,0,0)" stroke-linecap="butt" stroke-miterlimit="10.0"><path d="M 417.2746,457.1571 l -0.4353,-0.3920 l -1.3383,1.4863 l 1.7736,-1.0943 l -0.4353,-0.3920 l 1.3383,-1.4863 Z"/></g><g stroke-linejoin="miter" stroke-opacity="1.0" fill-opacity="1.0" stroke="rgb(0,0,0)" stroke-width="0.0" fill="rgb(0,0,0)" stroke-linecap="butt" stroke-miterlimit="10.0"><path d="M 41.6461,402.5739 c 31.3305,-10.1799 60.6827,4.7758 60.6827 4.7758l -13.6870,-20.0457 l -46.9957,15.2698 c 31.3305,-10.1799 46.2862,-39.5321 46.2862 -39.5321l 0.7095,24.2623 Z"/></g><g stroke-linejoin="miter" stroke-opacity="1.0" fill-opacity="1.0" stroke="rgb(0,0,0)" stroke-width="0.0" fill="rgb(0,0,0)" stroke-linecap="butt" stroke-miterlimit="10.0"><path d="M 88.6419,387.3040 l 0.5571,-0.1810 l 0.6180,1.9021 l -1.1751,-1.7211 l 0.5571,-0.1810 l -0.6180,-1.9021 Z"/></g><g stroke-linejoin="miter" stroke-opacity="1.0" fill-opacity="0.0" stroke="rgb(0,0,0)" stroke-width="4.0" fill="rgb(0,0,0)" stroke-linecap="butt" stroke-miterlimit="10.0"><path d="M 441.6141,426.6785 c -48.6740,-109.3237 -151.9742,-184.3756 -270.9883 -196.8845"/></g><g stroke-linejoin="miter" stroke-opacity="1.0" fill-opacity="1.0" stroke="rgb(0,0,0)" stroke-width="0.0" fill="rgb(0,0,0)" stroke-linecap="butt" stroke-miterlimit="10.0"><path d="M 461.9509,472.3557 c -13.3990,-30.0948 -44.1538,-41.9004 -44.1538 -41.9004l 24.0552,-3.2417 l 20.0986,45.1421 c -13.3990,-30.0948 -1.5934,-60.8495 -1.5934 -60.8495l -18.5052,15.7074 Z"/></g><g stroke-linejoin="miter" stroke-opacity="1.0" fill-opacity="1.0" stroke="rgb(0,0,0)" stroke-width="0.0" fill="rgb(0,0,0)" stroke-linecap="butt" stroke-miterlimit="10.0"><path d="M 441.8523,427.2136 l -0.2383,-0.5351 l -1.8271,0.8135 l 2.0654,-0.2783 l -0.2383,-0.5351 l 1.8271,-0.8135 Z"/></g><g stroke-linejoin="miter" stroke-opacity="1.0" fill-opacity="1.0" stroke="rgb(0,0,0)" stroke-width="0.0" fill="rgb(0,0,0)" stroke-linecap="butt" stroke-miterlimit="10.0"><path d="M 120.8997,224.5675 c 32.7623,3.4435 53.4939,29.0448 53.4939 29.0448l -4.3504,-23.8796 l -49.1435,-5.1652 c 32.7623,3.4435 58.3637,-17.2881 58.3637 -17.2881l -9.2202,22.4533 Z"/></g><g stroke-linejoin="miter" stroke-opacity="1.0" fill-opacity="1.0" stroke="rgb(0,0,0)" stroke-width="0.0" fill="rgb(0,0,0)" stroke-linecap="butt" stroke-miterlimit="10.0"><path d="M 170.0432,229.7327 l 0.5826,0.0612 l -0.2091,1.9890 l -0.3735,-2.0503 l 0.5826,0.0612 l 0.2091,-1.9890 Z"/></g><g stroke-linejoin="miter" stroke-opacity="1.0" fill-opacity="0.0" stroke="rgb(0,0,0)" stroke-width="4.0" fill="rgb(0,0,0)" stroke-linecap="butt" stroke-miterlimit="10.0"><path d="M 476.4844,409.2697 c -0.0000,-119.6697 -63.8430,-230.2490 -167.4800 -290.0838"/></g><g stroke-linejoin="miter" stroke-opacity="1.0" fill-opacity="1.0" stroke="rgb(0,0,0)" stroke-width="0.0" fill="rgb(0,0,0)" stroke-linecap="butt" stroke-miterlimit="10.0"><path d="M 476.4844,459.2697 c -0.0000,-32.9428 -23.2941,-56.2369 -23.2941 -56.2369l 23.2941,6.8227 l 0.0000,49.4142 c -0.0000,-32.9428 23.2941,-56.2369 23.2941 -56.2369l -23.2941,6.8227 Z"/></g><g stroke-linejoin="miter" stroke-opacity="1.0" fill-opacity="1.0" stroke="rgb(0,0,0)" stroke-width="0.0" fill="rgb(0,0,0)" stroke-linecap="butt" stroke-miterlimit="10.0"><path d="M 476.4844,409.8555 l -0.0000,-0.5858 l -2.0000,0.0000 l 2.0000,0.5858 l -0.0000,-0.5858 l 2.0000,-0.0000 Z"/></g><g stroke-linejoin="miter" stroke-opacity="1.0" fill-opacity="1.0" stroke="rgb(0,0,0)" stroke-width="0.0" fill="rgb(0,0,0)" stroke-linecap="butt" stroke-miterlimit="10.0"><path d="M 265.7031,94.1859 c 28.5293,16.4714 37.0555,48.2917 37.0555 48.2917l 5.7384,-23.5846 l -42.7940,-24.7071 c 28.5293,16.4714 60.3496,7.9452 60.3496 7.9452l -17.5557,16.7619 Z"/></g><g stroke-linejoin="miter" stroke-opacity="1.0" fill-opacity="1.0" stroke="rgb(0,0,0)" stroke-width="0.0" fill="rgb(0,0,0)" stroke-linecap="butt" stroke-miterlimit="10.0"><path d="M 308.4971,118.8930 l 0.5073,0.2929 l -1.0000,1.7321 l 0.4927,-2.0249 l 0.5073,0.2929 l 1.0000,-1.7321 Z"/></g><g stroke-linejoin="miter" stroke-opacity="1.0" fill-opacity="0.0" stroke="rgb(0,0,0)" stroke-width="4.0" fill="rgb(0,0,0)" stroke-linecap="butt" stroke-miterlimit="10.0"><path d="M 515.4207,407.5491 c 48.6740,-109.3237 35.3272,-236.3102 -35.0129 -333.1250"/></g><g stroke-linejoin="miter" stroke-opacity="1.0" fill-opacity="1.0" stroke="rgb(0,0,0)" stroke-width="0.0" fill="rgb(0,0,0)" stroke-linecap="butt" stroke-miterlimit="10.0"><path d="M 495.0839,453.2264 c 13.3990,-30.0948 1.5934,-60.8495 1.5934 -60.8495l 18.5052,15.7074 l -20.0986,45.1421 c 13.3990,-30.0948 44.1538,-41.9004 44.1538 -41.9004l -24.0552,-3.2417 Z"/></g><g stroke-linejoin="miter" stroke-opacity="1.0" fill-opacity="1.0" stroke="rgb(0,0,0)" stroke-width="0.0" fill="rgb(0,0,0)" stroke-linecap="butt" stroke-miterlimit="10.0"><path d="M 515.1825,408.0843 l 0.2383,-0.5351 l -1.8271,-0.8135 l 1.5888,1.3486 l 0.2383,-0.5351 l 1.8271,0.8135 Z"/></g><g stroke-linejoin="miter" stroke-opacity="1.0" fill-opacity="1.0" stroke="rgb(0,0,0)" stroke-width="0.0" fill="rgb(0,0,0)" stroke-linecap="butt" stroke-miterlimit="10.0"><path d="M 451.0186,33.9733 c 19.3633,26.6513 14.2099,59.1885 14.2099 59.1885l 14.8350,-19.2116 l -29.0449,-39.9769 c 19.3633,26.6513 51.9005,31.8047 51.9005 31.8047l -22.8556,8.1723 Z"/></g><g stroke-linejoin="miter" stroke-opacity="1.0" fill-opacity="1.0" stroke="rgb(0,0,0)" stroke-width="0.0" fill="rgb(0,0,0)" stroke-linecap="butt" stroke-miterlimit="10.0"><path d="M 480.0636,73.9502 l 0.3443,0.4739 l -1.6180,1.1756 l 1.2737,-1.6495 l 0.3443,0.4739 l 1.6180,-1.1756 Z"/></g><g stroke-linejoin="miter" stroke-opacity="1.0" fill-opacity="0.0" stroke="rgb(0,0,0)" stroke-width="4.0" fill="rgb(0,0,0)" stroke-linecap="butt" stroke-miterlimit="10.0"><path d="M 551.6907,421.8141 c 88.9319,-80.0746 128.3890,-201.5113 103.5083 -318.5659"/></g><g stroke-linejoin="miter" stroke-opacity="1.0" fill-opacity="1.0" stroke="rgb(0,0,0)" stroke-width="0.0" fill="rgb(0,0,0)" stroke-linecap="butt" stroke-miterlimit="10.0"><path d="M 514.5335,455.2706 c 24.4813,-22.0430 26.2054,-54.9407 26.2054 -54.9407l 10.5165,21.8761 l -36.7219,33.0646 c 24.4813,-22.0430 57.3789,-20.3189 57.3789 -20.3189l -20.6570,-12.7456 Z"/></g><g stroke-linejoin="miter" stroke-opacity="1.0" fill-opacity="1.0" stroke="rgb(0,0,0)" stroke-width="0.0" fill="rgb(0,0,0)" stroke-linecap="butt" stroke-miterlimit="10.0"><path d="M 551.2554,422.2061 l 0.4353,-0.3920 l -1.3383,-1.4863 l 0.9029,1.8783 l 0.4353,-0.3920 l 1.3383,1.4863 Z"/></g><g stroke-linejoin="miter" stroke-opacity="1.0" fill-opacity="1.0" stroke="rgb(0,0,0)" stroke-width="0.0" fill="rgb(0,0,0)" stroke-linecap="butt" stroke-miterlimit="10.0"><path d="M 644.8034,54.3409 c 6.8492,32.2229 -11.0927,59.8511 -11.0927 59.8511l 21.3665,-11.5167 l -10.2738,-48.3344 c 6.8492,32.2229 34.4774,50.1649 34.4774 50.1649l -24.2036,-1.8305 Z"/></g><g stroke-linejoin="miter" stroke-opacity="1.0" fill-opacity="1.0" stroke="rgb(0,0,0)" stroke-width="0.0" fill="rgb(0,0,0)" stroke-linecap="butt" stroke-miterlimit="10.0"><path d="M 655.0772,102.6753 l 0.1218,0.5730 l -1.9563,0.4158 l 1.8345,-0.9888 l 0.1218,0.5730 l 1.9563,-0.4158 Z"/></g><g stroke-linejoin="miter" stroke-opacity="1.0" fill-opacity="0.0" stroke="rgb(0,0,0)" stroke-width="4.0" fill="rgb(0,0,0)" stroke-linecap="butt" stroke-miterlimit="10.0"><path d="M 579.0229,449.5981 c 113.8126,-36.9800 199.2512,-131.8692 224.1320 -248.9238"/></g><g stroke-linejoin="miter" stroke-opacity="1.0" fill-opacity="1.0" stroke="rgb(0,0,0)" stroke-width="0.0" fill="rgb(0,0,0)" stroke-linecap="butt" stroke-miterlimit="10.0"><path d="M 531.4700,465.0490 c 31.3305,-10.1799 46.2862,-39.5321 46.2862 -39.5321l 0.7095,24.2623 l -46.9957,15.2698 c 31.3305,-10.1799 60.6827,4.7758 60.6827 4.7758l -13.6870,-20.0457 Z"/></g><g stroke-linejoin="miter" stroke-opacity="1.0" fill-opacity="1.0" stroke="rgb(0,0,0)" stroke-width="0.0" fill="rgb(0,0,0)" stroke-linecap="butt" stroke-miterlimit="10.0"><path d="M 578.4658,449.7791 l 0.5571,-0.1810 l -0.6180,-1.9021 l 0.0609,2.0831 l 0.5571,-0.1810 l 0.6180,1.9021 Z"/></g><g stroke-linejoin="miter" stroke-opacity="1.0" fill-opacity="1.0" stroke="rgb(0,0,0)" stroke-width="0.0" fill="rgb(0,0,0)" stroke-linecap="butt" stroke-miterlimit="10.0"><path d="M 813.5504,151.7670 c -6.8492,32.2229 -34.4774,50.1649 -34.4774 50.1649l 24.2036,-1.8305 l 10.2738,-48.3344 c -6.8492,32.2229 11.0927,59.8511 11.0927 59.8511l -21.3665,-11.5167 Z"/></g><g stroke-linejoin="miter" stroke-opacity="1.0" fill-opacity="1.0" stroke="rgb(0,0,0)" stroke-width="0.0" fill="rgb(0,0,0)" stroke-linecap="butt" stroke-miterlimit="10.0"><path d="M 803.2766,200.1014 l -0.1218,0.5730 l -1.9563,-0.4158 l 2.0781,-0.1572 l -0.1218,0.5730 l 1.9563,0.4158 Z"/></g><g stroke-linejoin="miter" stroke-opacity="1.0" fill-opacity="0.0" stroke="rgb(0,0,0)" stroke-width="4.0" fill="rgb(0,0,0)" stroke-linecap="butt" stroke-miterlimit="10.0"><path d="M 592.6913,486.0971 c 119.0141,12.5089 235.6611,-39.4257 306.0012 -136.2405"/></g><g stroke-linejoin="miter" stroke-opacity="1.0" fill-opacity="1.0" stroke="rgb(0,0,0)" stroke-width="0.0" fill="rgb(0,0,0)" stroke-linecap="butt" stroke-miterlimit="10.0"><path d="M 542.9652,480.8707 c 32.7623,3.4435 58.3637,-17.2881 58.3637 -17.2881l -9.2202,22.4533 l -49.1435,-5.1652 c 32.7623,3.4435 53.4939,29.0448 53.4939 29.0448l -4.3504,-23.8796 Z"/></g><g stroke-linejoin="miter" stroke-opacity="1.0" fill-opacity="1.0" stroke="rgb(0,0,0)" stroke-width="0.0" fill="rgb(0,0,0)" stroke-linecap="butt" stroke-miterlimit="10.0"><path d="M 592.1087,486.0359 l 0.5826,0.0612 l 0.2091,-1.9890 l -0.7916,1.9278 l 0.5826,0.0612 l -0.2091,1.9890 Z"/></g><g stroke-linejoin="miter" stroke-opacity="1.0" fill-opacity="1.0" stroke="rgb(0,0,0)" stroke-width="0.0" fill="rgb(0,0,0)" stroke-linecap="butt" stroke-miterlimit="10.0"><path d="M 928.0817,309.4058 c -19.3633,26.6513 -51.9005,31.8047 -51.9005 31.8047l 22.8556,8.1723 l 29.0449,-39.9769 c -19.3633,26.6513 -14.2099,59.1885 -14.2099 59.1885l -14.8350,-19.2116 Z"/></g><g stroke-linejoin="miter" stroke-opacity="1.0" fill-opacity="1.0" stroke="rgb(0,0,0)" stroke-width="0.0" fill="rgb(0,0,0)" stroke-linecap="butt" stroke-miterlimit="10.0"><path d="M 899.0367,349.3827 l -0.3443,0.4739 l -1.6180,-1.1756 l 1.9624,0.7017 l -0.3443,0.4739 l 1.6180,1.1756 Z"/></g><g stroke-linejoin="miter" stroke-opacity="1.0" fill-opacity="0.0" stroke="rgb(0,0,0)" stroke-width="4.0" fill="rgb(0,0,0)" stroke-linecap="butt" stroke-miterlimit="10.0"><path d="M 590.3325,525.0000 c 103.6370,59.8348 231.3230,59.8348 334.9600 -0.0000"/></g><g stroke-linejoin="miter" stroke-opacity="1.0" fill-opacity="1.0" stroke="rgb(0,0,0)" stroke-width="0.0" fill="rgb(0,0,0)" stroke-linecap="butt" stroke-miterlimit="10.0"><path d="M 547.0312,500.0000 c 28.5293,16.4714 60.3496,7.9452 60.3496 7.9452l -17.5557,16.7619 l -42.7940,-24.7071 c 28.5293,16.4714 37.0555,48.2917 37.0555 48.2917l 5.7384,-23.5846 Z"/></g><g stroke-linejoin="miter" stroke-opacity="1.0" fill-opacity="1.0" stroke="rgb(0,0,0)" stroke-width="0.0" fill="rgb(0,0,0)" stroke-linecap="butt" stroke-miterlimit="10.0"><path d="M 589.8252,524.7071 l 0.5073,0.2929 l 1.0000,-1.7321 l -1.5073,1.4392 l 0.5073,0.2929 l -1.0000,1.7321 Z"/></g><g stroke-linejoin="miter" stroke-opacity="1.0" fill-opacity="1.0" stroke="rgb(0,0,0)" stroke-width="0.0" fill="rgb(0,0,0)" stroke-linecap="butt" stroke-miterlimit="10.0"><path d="M 968.5938,500.0000 c -28.5293,16.4714 -60.3496,7.9452 -60.3496 7.9452l 17.5557,16.7619 l 42.7940,-24.7071 c -28.5293,16.4714 -37.0555,48.2917 -37.0555 48.2917l -5.7384,-23.5846 Z"/></g><g stroke-linejoin="miter" stroke-opacity="1.0" fill-opacity="1.0" stroke="rgb(0,0,0)" stroke-width="0.0" fill="rgb(0,0,0)" stroke-linecap="butt" stroke-miterlimit="10.0"><path d="M 925.7998,524.7071 l -0.5073,0.2929 l -1.0000,-1.7321 l 1.5073,1.4392 l -0.5073,0.2929 l 1.0000,1.7321 Z"/></g><g stroke-linejoin="miter" stroke-opacity="1.0" fill-opacity="1.0" stroke="rgb(0,0,0)" stroke-width="0.0" fill="rgb(255,0,0)" stroke-linecap="butt" stroke-miterlimit="10.0"><path d="M 546.8750,500.0000 c 0.0000,-25.8883 -20.9867,-46.8750 -46.8750 -46.8750c -25.8883,-0.0000 -46.8750,20.9867 -46.8750 46.8750c -0.0000,25.8883 20.9867,46.8750 46.8750 46.8750c 25.8883,0.0000 46.8750,-20.9867 46.8750 -46.8750Z"/></g></svg>