<?xml version="1.0" encoding="UTF-8"?>
<!DOCTYPE svg PUBLIC "-//W3C//DTD SVG 1.1//EN"
    "http://www.w3.org/Graphics/SVG/1.1/DTD/svg11.dtd"><svg xmlns="http://www.w3.org/2000/svg" height="1000.0000" stroke-opacity="1" viewBox="0 0 1000 1000" font-size="1" width="1000.0000" xmlns:xlink="http://www.w3.org/1999/xlink" stroke="rgb(0,0,0)" version="1.1"><defs></defs><g stroke-linejoin="miter" stroke-opacity="1.0" fill-opacity="0.0" stroke="rgb(0,0,0)" stroke-width="2.0258551822207957" fill="rgb(0,0,0)" stroke-linecap="butt" stroke-miterlimit="10.0"><path d="M 52.2136,609.8344 l 861.1410,-211.2233 "/></g><g stroke-linejoin="miter" stroke-opacity="1.0" fill-opacity="1.0" stroke="rgb(0,0,0)" stroke-width="0.0" fill="rgb(0,0,0)" stroke-linecap="butt" stroke-miterlimit="10.0"></g><g stroke-linejoin="miter" stroke-opacity="1.0" fill-opacity="1.0" stroke="rgb(0,0,0)" stroke-width="0.0" fill="rgb(0,0,0)" stroke-linecap="butt" stroke-miterlimit="10.0"></g><g stroke-linejoin="miter" stroke-opacity="1.0" fill-opacity="1.0" stroke="rgb(0,0,0)" stroke-width="0.0" fill="rgb(0,0,0)" stroke-linecap="butt" stroke-miterlimit="10.0"><path d="M 947.7864,390.1656 l -44.1612,-3.2573 l 10.2465,11.5759 l -3.7271,15.0034 Z"/></g><g stroke-linejoin="miter" stroke-opacity="1.0" fill-opacity="1.0" stroke="rgb(0,0,0)" stroke-width="0.0" fill="rgb(0,0,0)" stroke-linecap="butt" stroke-miterlimit="10.0"><path d="M 913.8718,398.4843 l -0.5172,0.1269 l -0.2413,-0.9838 l 0.7585,0.8569 l -0.5172,0.1269 l 0.2413,0.9838 Z"/></g><g stroke-linejoin="miter" stroke-opacity="1.0" fill-opacity="1.0" stroke="rgb(0,0,0)" stroke-width="0.0" fill="rgb(255,0,0)" stroke-linecap="butt" stroke-miterlimit="10.0"><path d="M 954.5455,390.1656 c 0.0000,-3.7329 -3.0261,-6.7590 -6.7590 -6.7590c -3.7329,-0.0000 -6.7590,3.0261 -6.7590 6.7590c -0.0000,3.7329 3.0261,6.7590 6.7590 6.7590c 3.7329,0.0000 6.7590,-3.0261 6.7590 -6.7590Z"/></g><g stroke-linejoin="miter" stroke-opacity="1.0" fill-opacity="1.0" stroke="rgb(0,0,0)" stroke-width="0.0" fill="rgb(0,0,255)" stroke-linecap="butt" stroke-miterlimit="10.0"><path d="M 58.9726,609.8344 c 0.0000,-3.7329 -3.0261,-6.7590 -6.7590 -6.7590c -3.7329,-0.0000 -6.7590,3.0261 -6.7590 6.7590c -0.0000,3.7329 3.0261,6.7590 6.7590 6.7590c 3.7329,0.0000 6.7590,-3.0261 6.7590 -6.7590Z"/></g></svg>