<?xml version="1.0" encoding="UTF-8"?>
<!DOCTYPE svg PUBLIC "-//W3C//DTD SVG 1.1//EN"
    "http://www.w3.org/Graphics/SVG/1.1/DTD/svg11.dtd"><svg xmlns="http://www.w3.org/2000/svg" height="1000.0000" stroke-opacity="1" viewBox="0 0 1000 1000" font-size="1" width="1000.0000" xmlns:xlink="http://www.w3.org/1999/xlink" stroke="rgb(0,0,0)" version="1.1"><defs></defs><g stroke-linejoin="miter" stroke-opacity="1.0" fill-opacity="0.0" stroke="rgb(0,0,0)" stroke-width="2.9541957835039856" fill="rgb(0,0,0)" stroke-linecap="butt" stroke-miterlimit="10.0"><path d="M 772.7273,909.0909 c 0.0000,-50.2077 -40.7014,-90.9091 -90.9091 -90.9091c -50.2077,-0.0000 -90.9091,40.7014 -90.9091 90.9091c -0.0000,50.2077 40.7014,90.9091 90.9091 90.9091c 50.2077,0.0000 90.9091,-40.7014 90.9091 -90.9091Z"/></g><g stroke-linejoin="miter" stroke-opacity="1.0" fill-opacity="0.0" stroke="rgb(0,0,0)" stroke-width="2.9541957835039856" fill="rgb(0,0,0)" stroke-linecap="butt" stroke-miterlimit="10.0"><path d="M 763.6364,736.3636 c 0.0000,-45.1869 -36.6312,-81.8182 -81.8182 -81.8182c -45.1869,-0.0000 -81.8182,36.6312 -81.8182 81.8182c -0.0000,45.1869 36.6312,81.8182 81.8182 81.8182c 45.1869,0.0000 81.8182,-36.6312 81.8182 -81.8182Z"/></g><g stroke-linejoin="miter" stroke-opacity="1.0" fill-opacity="0.0" stroke="rgb(0,0,0)" stroke-width="2.9541957835039856" fill="rgb(0,0,0)" stroke-linecap="butt" stroke-miterlimit="10.0"><path d="M 754.5455,581.8182 c 0.0000,-40.1662 -32.5611,-72.7273 -72.7273 -72.7273c -40.1662,-0.0000 -72.7273,32.5611 -72.7273 72.7273c -0.0000,40.1662 32.5611,72.7273 72.7273 72.7273c 40.1662,0.0000 72.7273,-32.5611 72.7273 -72.7273Z"/></g><g stroke-linejoin="miter" stroke-opacity="1.0" fill-opacity="0.0" stroke="rgb(0,0,0)" stroke-width="2.9541957835039856" fill="rgb(0,0,0)" stroke-linecap="butt" stroke-miterlimit="10.0"><path d="M 745.4545,445.4545 c 0.0000,-35.1454 -28.4910,-63.6364 -63.6364 -63.6364c -35.1454,-0.0000 -63.6364,28.4910 -63.6364 63.6364c -0.0000,35.1454 28.4910,63.6364 63.6364 63.6364c 35.1454,0.0000 63.6364,-28.4910 63.6364 -63.6364Z"/></g><g stroke-linejoin="miter" stroke-opacity="1.0" fill-opacity="0.0" stroke="rgb(0,0,0)" stroke-width="2.9541957835039856" fill="rgb(0,0,0)" stroke-linecap="butt" stroke-miterlimit="10.0"><path d="M 736.3636,327.2727 c 0.0000,-30.1246 -24.4208,-54.5455 -54.5455 -54.5455c -30.1246,-0.0000 -54.5455,24.4208 -54.5455 54.5455c -0.0000,30.1246 24.4208,54.5455 54.5455 54.5455c 30.1246,0.0000 54.5455,-24.4208 54.5455 -54.5455Z"/></g><g stroke-linejoin="miter" stroke-opacity="1.0" fill-opacity="0.0" stroke="rgb(0,0,0)" stroke-width="2.9541957835039856" fill="rgb(0,0,0)" stroke-linecap="butt" stroke-miterlimit="10.0"><path d="M 727.2727,227.2727 c 0.0000,-25.1039 -20.3507,-45.4545 -45.4545 -45.4545c -25.1039,-0.0000 -45.4545,20.3507 -45.4545 45.4545c -0.0000,25.1039 20.3507,45.4545 45.4545 45.4545c 25.1039,0.0000 45.4545,-20.3507 45.4545 -45.4545Z"/></g><g stroke-linejoin="miter" stroke-opacity="1.0" fill-opacity="0.0" stroke="rgb(0,0,0)" stroke-width="2.9541957835039856" fill="rgb(0,0,0)" stroke-linecap="butt" stroke-miterlimit="10.0"><path d="M 718.1818,145.4545 c 0.0000,-20.0831 -16.2806,-36.3636 -36.3636 -36.3636c -20.0831,-0.0000 -36.3636,16.2806 -36.3636 36.3636c -0.0000,20.0831 16.2806,36.3636 36.3636 36.3636c 20.0831,0.0000 36.3636,-16.2806 36.3636 -36.3636Z"/></g><g stroke-linejoin="miter" stroke-opacity="1.0" fill-opacity="0.0" stroke="rgb(0,0,0)" stroke-width="2.9541957835039856" fill="rgb(0,0,0)" stroke-linecap="butt" stroke-miterlimit="10.0"><path d="M 709.0909,81.8182 c 0.0000,-15.0623 -12.2104,-27.2727 -27.2727 -27.2727c -15.0623,-0.0000 -27.2727,12.2104 -27.2727 27.2727c -0.0000,15.0623 12.2104,27.2727 27.2727 27.2727c 15.0623,0.0000 27.2727,-12.2104 27.2727 -27.2727Z"/></g><g stroke-linejoin="miter" stroke-opacity="1.0" fill-opacity="0.0" stroke="rgb(0,0,0)" stroke-width="2.9541957835039856" fill="rgb(0,0,0)" stroke-linecap="butt" stroke-miterlimit="10.0"><path d="M 700.0000,36.3636 c 0.0000,-10.0415 -8.1403,-18.1818 -18.1818 -18.1818c -10.0415,-0.0000 -18.1818,8.1403 -18.1818 18.1818c -0.0000,10.0415 8.1403,18.1818 18.1818 18.1818c 10.0415,0.0000 18.1818,-8.1403 18.1818 -18.1818Z"/></g><g stroke-linejoin="miter" stroke-opacity="1.0" fill-opacity="0.0" stroke="rgb(0,0,0)" stroke-width="2.9541957835039856" fill="rgb(0,0,0)" stroke-linecap="butt" stroke-miterlimit="10.0"><path d="M 690.9091,9.0909 c 0.0000,-5.0208 -4.0701,-9.0909 -9.0909 -9.0909c -5.0208,-0.0000 -9.0909,4.0701 -9.0909 9.0909c -0.0000,5.0208 4.0701,9.0909 9.0909 9.0909c 5.0208,0.0000 9.0909,-4.0701 9.0909 -9.0909Z"/></g><g stroke-linejoin="miter" stroke-opacity="1.0" fill-opacity="0.0" stroke="rgb(0,0,0)" stroke-width="2.9541957835039856" fill="rgb(0,0,0)" stroke-linecap="butt" stroke-miterlimit="10.0"><path d="M 590.9091,909.0909 c 0.0000,-50.2077 -40.7014,-90.9091 -90.9091 -90.9091c -50.2077,-0.0000 -90.9091,40.7014 -90.9091 90.9091c -0.0000,50.2077 40.7014,90.9091 90.9091 90.9091c 50.2077,0.0000 90.9091,-40.7014 90.9091 -90.9091Z"/></g><g stroke-linejoin="miter" stroke-opacity="1.0" fill-opacity="0.0" stroke="rgb(0,0,0)" stroke-width="2.9541957835039856" fill="rgb(0,0,0)" stroke-linecap="butt" stroke-miterlimit="10.0"><path d="M 581.8182,736.3636 c 0.0000,-45.1869 -36.6312,-81.8182 -81.8182 -81.8182c -45.1869,-0.0000 -81.8182,36.6312 -81.8182 81.8182c -0.0000,45.1869 36.6312,81.8182 81.8182 81.8182c 45.1869,0.0000 81.8182,-36.6312 81.8182 -81.8182Z"/></g><g stroke-linejoin="miter" stroke-opacity="1.0" fill-opacity="0.0" stroke="rgb(0,0,0)" stroke-width="2.9541957835039856" fill="rgb(0,0,0)" stroke-linecap="butt" stroke-miterlimit="10.0"><path d="M 572.7273,581.8182 c 0.0000,-40.1662 -32.5611,-72.7273 -72.7273 -72.7273c -40.1662,-0.0000 -72.7273,32.5611 -72.7273 72.7273c -0.0000,40.1662 32.5611,72.7273 72.7273 72.7273c 40.1662,0.0000 72.7273,-32.5611 72.7273 -72.7273Z"/></g><g stroke-linejoin="miter" stroke-opacity="1.0" fill-opacity="0.0" stroke="rgb(0,0,0)" stroke-width="2.9541957835039856" fill="rgb(0,0,0)" stroke-linecap="butt" stroke-miterlimit="10.0"><path d="M 563.6364,445.4545 c 0.0000,-35.1454 -28.4910,-63.6364 -63.6364 -63.6364c -35.1454,-0.0000 -63.6364,28.4910 -63.6364 63.6364c -0.0000,35.1454 28.4910,63.6364 63.6364 63.6364c 35.1454,0.0000 63.6364,-28.4910 63.6364 -63.6364Z"/></g><g stroke-linejoin="miter" stroke-opacity="1.0" fill-opacity="0.0" stroke="rgb(0,0,0)" stroke-width="2.9541957835039856" fill="rgb(0,0,0)" stroke-linecap="butt" stroke-miterlimit="10.0"><path d="M 554.5455,327.2727 c 0.0000,-30.1246 -24.4208,-54.5455 -54.5455 -54.5455c -30.1246,-0.0000 -54.5455,24.4208 -54.5455 54.5455c -0.0000,30.1246 24.4208,54.5455 54.5455 54.5455c 30.1246,0.0000 54.5455,-24.4208 54.5455 -54.5455Z"/></g><g stroke-linejoin="miter" stroke-opacity="1.0" fill-opacity="0.0" stroke="rgb(0,0,0)" stroke-width="2.9541957835039856" fill="rgb(0,0,0)" stroke-linecap="butt" stroke-miterlimit="10.0"><path d="M 545.4545,227.2727 c 0.0000,-25.1039 -20.3507,-45.4545 -45.4545 -45.4545c -25.1039,-0.0000 -45.4545,20.3507 -45.4545 45.4545c -0.0000,25.1039 20.3507,45.4545 45.4545 45.4545c 25.1039,0.0000 45.4545,-20.3507 45.4545 -45.4545Z"/></g><g stroke-linejoin="miter" stroke-opacity="1.0" fill-opacity="0.0" stroke="rgb(0,0,0)" stroke-width="2.9541957835039856" fill="rgb(0,0,0)" stroke-linecap="butt" stroke-miterlimit="10.0"><path d="M 536.3636,145.4545 c 0.0000,-20.0831 -16.2806,-36.3636 -36.3636 -36.3636c -20.0831,-0.0000 -36.3636,16.2806 -36.3636 36.3636c -0.0000,20.0831 16.2806,36.3636 36.3636 36.3636c 20.0831,0.0000 36.3636,-16.2806 36.3636 -36.3636Z"/></g><g stroke-linejoin="miter" stroke-opacity="1.0" fill-opacity="0.0" stroke="rgb(0,0,0)" stroke-width="2.9541957835039856" fill="rgb(0,0,0)" stroke-linecap="butt" stroke-miterlimit="10.0"><path d="M 527.2727,81.8182 c 0.0000,-15.0623 -12.2104,-27.2727 -27.2727 -27.2727c -15.0623,-0.0000 -27.2727,12.2104 -27.2727 27.2727c -0.0000,15.0623 12.2104,27.2727 27.2727 27.2727c 15.0623,0.0000 27.2727,-12.2104 27.2727 -27.2727Z"/></g><g stroke-linejoin="miter" stroke-opacity="1.0" fill-opacity="0.0" stroke="rgb(0,0,0)" stroke-width="2.9541957835039856" fill="rgb(0,0,0)" stroke-linecap="butt" stroke-miterlimit="10.0"><path d="M 518.1818,36.3636 c 0.0000,-10.0415 -8.1403,-18.1818 -18.1818 -18.1818c -10.0415,-0.0000 -18.1818,8.1403 -18.1818 18.1818c -0.0000,10.0415 8.1403,18.1818 18.1818 18.1818c 10.0415,0.0000 18.1818,-8.1403 18.1818 -18.1818Z"/></g><g stroke-linejoin="miter" stroke-opacity="1.0" fill-opacity="0.0" stroke="rgb(0,0,0)" stroke-width="2.9541957835039856" fill="rgb(0,0,0)" stroke-linecap="butt" stroke-miterlimit="10.0"><path d="M 509.0909,9.0909 c 0.0000,-5.0208 -4.0701,-9.0909 -9.0909 -9.0909c -5.0208,-0.0000 -9.0909,4.0701 -9.0909 9.0909c -0.0000,5.0208 4.0701,9.0909 9.0909 9.0909c 5.0208,0.0000 9.0909,-4.0701 9.0909 -9.0909Z"/></g><g stroke-linejoin="miter" stroke-opacity="1.0" fill-opacity="0.0" stroke="rgb(0,0,0)" stroke-width="2.9541957835039856" fill="rgb(0,0,0)" stroke-linecap="butt" stroke-miterlimit="10.0"><path d="M 409.0909,909.0909 c 0.0000,-50.2077 -40.7014,-90.9091 -90.9091 -90.9091c -50.2077,-0.0000 -90.9091,40.7014 -90.9091 90.9091c -0.0000,50.2077 40.7014,90.9091 90.9091 90.9091c 50.2077,0.0000 90.9091,-40.7014 90.9091 -90.9091Z"/></g><g stroke-linejoin="miter" stroke-opacity="1.0" fill-opacity="0.0" stroke="rgb(0,0,0)" stroke-width="2.9541957835039856" fill="rgb(0,0,0)" stroke-linecap="butt" stroke-miterlimit="10.0"><path d="M 400.0000,736.3636 c 0.0000,-45.1869 -36.6312,-81.8182 -81.8182 -81.8182c -45.1869,-0.0000 -81.8182,36.6312 -81.8182 81.8182c -0.0000,45.1869 36.6312,81.8182 81.8182 81.8182c 45.1869,0.0000 81.8182,-36.6312 81.8182 -81.8182Z"/></g><g stroke-linejoin="miter" stroke-opacity="1.0" fill-opacity="0.0" stroke="rgb(0,0,0)" stroke-width="2.9541957835039856" fill="rgb(0,0,0)" stroke-linecap="butt" stroke-miterlimit="10.0"><path d="M 390.9091,581.8182 c 0.0000,-40.1662 -32.5611,-72.7273 -72.7273 -72.7273c -40.1662,-0.0000 -72.7273,32.5611 -72.7273 72.7273c -0.0000,40.1662 32.5611,72.7273 72.7273 72.7273c 40.1662,0.0000 72.7273,-32.5611 72.7273 -72.7273Z"/></g><g stroke-linejoin="miter" stroke-opacity="1.0" fill-opacity="0.0" stroke="rgb(0,0,0)" stroke-width="2.9541957835039856" fill="rgb(0,0,0)" stroke-linecap="butt" stroke-miterlimit="10.0"><path d="M 381.8182,445.4545 c 0.0000,-35.1454 -28.4910,-63.6364 -63.6364 -63.6364c -35.1454,-0.0000 -63.6364,28.4910 -63.6364 63.6364c -0.0000,35.1454 28.4910,63.6364 63.6364 63.6364c 35.1454,0.0000 63.6364,-28.4910 63.6364 -63.6364Z"/></g><g stroke-linejoin="miter" stroke-opacity="1.0" fill-opacity="0.0" stroke="rgb(0,0,0)" stroke-width="2.9541957835039856" fill="rgb(0,0,0)" stroke-linecap="butt" stroke-miterlimit="10.0"><path d="M 372.7273,327.2727 c 0.0000,-30.1246 -24.4208,-54.5455 -54.5455 -54.5455c -30.1246,-0.0000 -54.5455,24.4208 -54.5455 54.5455c -0.0000,30.1246 24.4208,54.5455 54.5455 54.5455c 30.1246,0.0000 54.5455,-24.4208 54.5455 -54.5455Z"/></g><g stroke-linejoin="miter" stroke-opacity="1.0" fill-opacity="0.0" stroke="rgb(0,0,0)" stroke-width="2.9541957835039856" fill="rgb(0,0,0)" stroke-linecap="butt" stroke-miterlimit="10.0"><path d="M 363.6364,227.2727 c 0.0000,-25.1039 -20.3507,-45.4545 -45.4545 -45.4545c -25.1039,-0.0000 -45.4545,20.3507 -45.4545 45.4545c -0.0000,25.1039 20.3507,45.4545 45.4545 45.4545c 25.1039,0.0000 45.4545,-20.3507 45.4545 -45.4545Z"/></g><g stroke-linejoin="miter" stroke-opacity="1.0" fill-opacity="0.0" stroke="rgb(0,0,0)" stroke-width="2.9541957835039856" fill="rgb(0,0,0)" stroke-linecap="butt" stroke-miterlimit="10.0"><path d="M 354.5455,145.4545 c 0.0000,-20.0831 -16.2806,-36.3636 -36.3636 -36.3636c -20.0831,-0.0000 -36.3636,16.2806 -36.3636 36.3636c -0.0000,20.0831 16.2806,36.3636 36.3636 36.3636c 20.0831,0.0000 36.3636,-16.2806 36.3636 -36.3636Z"/></g><g stroke-linejoin="miter" stroke-opacity="1.0" fill-opacity="0.0" stroke="rgb(0,0,0)" stroke-width="2.9541957835039856" fill="rgb(0,0,0)" stroke-linecap="butt" stroke-miterlimit="10.0"><path d="M 345.4545,81.8182 c 0.0000,-15.0623 -12.2104,-27.2727 -27.2727 -27.2727c -15.0623,-0.0000 -27.2727,12.2104 -27.2727 27.2727c -0.0000,15.0623 12.2104,27.2727 27.2727 27.2727c 15.0623,0.0000 27.2727,-12.2104 27.2727 -27.2727Z"/></g><g stroke-linejoin="miter" stroke-opacity="1.0" fill-opacity="0.0" stroke="rgb(0,0,0)" stroke-width="2.9541957835039856" fill="rgb(0,0,0)" stroke-linecap="butt" stroke-miterlimit="10.0"><path d="M 336.3636,36.3636 c 0.0000,-10.0415 -8.1403,-18.1818 -18.1818 -18.1818c -10.0415,-0.0000 -18.1818,8.1403 -18.1818 18.1818c -0.0000,10.0415 8.1403,18.1818 18.1818 18.1818c 10.0415,0.0000 18.1818,-8.1403 18.1818 -18.1818Z"/></g><g stroke-linejoin="miter" stroke-opacity="1.0" fill-opacity="0.0" stroke="rgb(0,0,0)" stroke-width="2.9541957835039856" fill="rgb(0,0,0)" stroke-linecap="butt" stroke-miterlimit="10.0"><path d="M 327.2727,9.0909 c 0.0000,-5.0208 -4.0701,-9.0909 -9.0909 -9.0909c -5.0208,-0.0000 -9.0909,4.0701 -9.0909 9.0909c -0.0000,5.0208 4.0701,9.0909 9.0909 9.0909c 5.0208,0.0000 9.0909,-4.0701 9.0909 -9.0909Z"/></g></svg>