<?xml version="1.0" encoding="UTF-8"?>
<!DOCTYPE svg PUBLIC "-//W3C//DTD SVG 1.1//EN"
    "http://www.w3.org/Graphics/SVG/1.1/DTD/svg11.dtd"><svg xmlns="http://www.w3.org/2000/svg" height="1000.0000" stroke-opacity="1" viewBox="0 0 1000 1000" font-size="1" width="1000.0000" xmlns:xlink="http://www.w3.org/1999/xlink" stroke="rgb(0,0,0)" version="1.1"><defs></defs><g stroke-linejoin="miter" stroke-opacity="1.0" fill-opacity="1.0" stroke="rgb(0,0,0)" stroke-width="3.265986323710904" fill="rgb(255,0,0)" stroke-linecap="butt" stroke-miterlimit="10.0"><path d="M 1000.0000,500.0000 c 0.0000,-184.0949 -149.2384,-333.3333 -333.3333 -333.3333c -184.0949,-0.0000 -333.3333,149.2384 -333.3333 333.3333c -0.0000,184.0949 149.2384,333.3333 333.3333 333.3333c 184.0949,0.0000 333.3333,-149.2384 333.3333 -333.3333Z"/></g><g stroke-linejoin="miter" stroke-opacity="1.0" fill-opacity="1.0" stroke="rgb(0,0,0)" stroke-width="3.265986323710904" fill="rgb(0,128,0)" stroke-linecap="butt" stroke-miterlimit="10.0"><path d="M 333.3333,500.0000 c 0.0000,-61.3650 -49.7461,-111.1111 -111.1111 -111.1111c -61.3650,-0.0000 -111.1111,49.7461 -111.1111 111.1111c -0.0000,61.3650 49.7461,111.1111 111.1111 111.1111c 61.3650,0.0000 111.1111,-49.7461 111.1111 -111.1111Z"/></g><g stroke-linejoin="miter" stroke-opacity="1.0" fill-opacity="1.0" stroke="rgb(0,0,0)" stroke-width="3.265986323710904" fill="rgb(0,255,255)" stroke-linecap="butt" stroke-miterlimit="10.0"><path d="M 111.1111,555.5556 l -0.0000,-111.1111 h -111.1111 l -0.0000,111.1111 Z"/></g></svg>