<?xml version="1.0" encoding="UTF-8"?>
<!DOCTYPE svg PUBLIC "-//W3C//DTD SVG 1.1//EN"
    "http://www.w3.org/Graphics/SVG/1.1/DTD/svg11.dtd"><svg xmlns="http://www.w3.org/2000/svg" height="1000.0000" stroke-opacity="1" viewBox="0 0 1000 1000" font-size="1" width="1000.0000" xmlns:xlink="http://www.w3.org/1999/xlink" stroke="rgb(0,0,0)" version="1.1"><defs></defs><g stroke-linejoin="miter" stroke-opacity="1.0" fill-opacity="1.0" stroke="rgb(0,0,0)" stroke-width="3.7416573867739413" fill="rgb(0,0,0)" stroke-linecap="butt" stroke-miterlimit="10.0"><path d="M 1000.0000,562.5000 l -0.0000,-500.0000 h -500.0000 l -0.0000,500.0000 Z"/></g><g stroke-linejoin="miter" stroke-opacity="1.0" fill-opacity="1.0" stroke="rgb(0,0,0)" stroke-width="3.7416573867739413" fill="rgb(255,0,0)" stroke-linecap="butt" stroke-miterlimit="10.0"><path d="M 500.0000,687.5000 c 0.0000,-138.0712 -111.9288,-250.0000 -250.0000 -250.0000c -138.0712,-0.0000 -250.0000,111.9288 -250.0000 250.0000c -0.0000,138.0712 111.9288,250.0000 250.0000 250.0000c 138.0712,0.0000 250.0000,-111.9288 250.0000 -250.0000Z"/></g><g stroke-linejoin="miter" stroke-opacity="1.0" fill-opacity="1.0" stroke="rgb(0,0,0)" stroke-width="3.7416573867739413" fill="rgb(0,0,255)" stroke-linecap="butt" stroke-miterlimit="10.0"><path d="M 375.0000,312.5000 c 0.0000,-69.0356 -55.9644,-125.0000 -125.0000 -125.0000c -69.0356,-0.0000 -125.0000,55.9644 -125.0000 125.0000c -0.0000,69.0356 55.9644,125.0000 125.0000 125.0000c 69.0356,0.0000 125.0000,-55.9644 125.0000 -125.0000Z"/></g></svg>