<?xml version="1.0" encoding="UTF-8"?>
<!DOCTYPE svg PUBLIC "-//W3C//DTD SVG 1.1//EN"
    "http://www.w3.org/Graphics/SVG/1.1/DTD/svg11.dtd"><svg xmlns="http://www.w3.org/2000/svg" height="1000.0000" stroke-opacity="1" viewBox="0 0 1000 1000" font-size="1" width="1000.0000" xmlns:xlink="http://www.w3.org/1999/xlink" stroke="rgb(0,0,0)" version="1.1"><defs></defs><g stroke-linejoin="miter" stroke-opacity="1.0" fill-opacity="1.0" stroke="rgb(0,0,0)" stroke-width="0.0" fill="rgb(255,255,255)" stroke-linecap="butt" stroke-miterlimit="10.0"><path d="M 801.7883,1000.0000 l -0.0000,-1000.0000 h -603.5766 l -0.0000,1000.0000 Z"/></g><g stroke-linejoin="miter" stroke-opacity="1.0" fill-opacity="1.0" font-size="33.53203307688914px" stroke="rgb(0,0,0)" stroke-width="3.107607685365718" fill="rgb(165,42,42)" stroke-linecap="butt" stroke-miterlimit="10.0"><text dominant-baseline="middle" transform="matrix(1.0000,0.0000,0.0000,1.0000,500.0000,865.8719)" stroke="none" text-anchor="middle">3.14</text></g><g stroke-linejoin="miter" stroke-opacity="1.0" fill-opacity="1.0" font-size="67.06406615377828px" stroke="rgb(0,0,0)" stroke-width="3.107607685365718" fill="rgb(0,0,0)" stroke-linecap="butt" stroke-miterlimit="10.0" font-weight="bold"><text dominant-baseline="middle" transform="matrix(1.0000,0.0000,0.0000,1.0000,500.0000,802.9993)" stroke="none" text-anchor="middle">Happy pi day!</text></g><g stroke-linejoin="miter" stroke-opacity="1.0" fill-opacity="1.0" stroke="rgb(0,0,0)" stroke-width="0.0" fill="rgb(254,198,21)" stroke-linecap="butt" stroke-miterlimit="10.0"><path d="M 656.7181,608.9826 c 0.0000,-3.7038 -3.0026,-6.7064 -6.7064 -6.7064c -3.7038,-0.0000 -6.7064,3.0026 -6.7064 6.7064c -0.0000,3.7038 3.0026,6.7064 6.7064 6.7064c 3.7038,0.0000 6.7064,-3.0026 6.7064 -6.7064Z"/></g><g stroke-linejoin="miter" stroke-opacity="1.0" fill-opacity="1.0" stroke="rgb(0,0,0)" stroke-width="0.0" fill="rgb(254,198,21)" stroke-linecap="butt" stroke-miterlimit="10.0"><path d="M 639.0697,545.3553 c 0.0000,-3.7038 -3.0026,-6.7064 -6.7064 -6.7064c -3.7038,-0.0000 -6.7064,3.0026 -6.7064 6.7064c -0.0000,3.7038 3.0026,6.7064 6.7064 6.7064c 3.7038,0.0000 6.7064,-3.0026 6.7064 -6.7064Z"/></g><g stroke-linejoin="miter" stroke-opacity="1.0" fill-opacity="1.0" stroke="rgb(0,0,0)" stroke-width="0.0" fill="rgb(254,198,21)" stroke-linecap="butt" stroke-miterlimit="10.0"><path d="M 621.4213,486.3724 c 0.0000,-3.7038 -3.0026,-6.7064 -6.7064 -6.7064c -3.7038,-0.0000 -6.7064,3.0026 -6.7064 6.7064c -0.0000,3.7038 3.0026,6.7064 6.7064 6.7064c 3.7038,0.0000 6.7064,-3.0026 6.7064 -6.7064Z"/></g><g stroke-linejoin="miter" stroke-opacity="1.0" fill-opacity="1.0" stroke="rgb(0,0,0)" stroke-width="0.0" fill="rgb(254,198,21)" stroke-linecap="butt" stroke-miterlimit="10.0"><path d="M 603.7728,432.0338 c 0.0000,-3.7038 -3.0026,-6.7064 -6.7064 -6.7064c -3.7038,-0.0000 -6.7064,3.0026 -6.7064 6.7064c -0.0000,3.7038 3.0026,6.7064 6.7064 6.7064c 3.7038,0.0000 6.7064,-3.0026 6.7064 -6.7064Z"/></g><g stroke-linejoin="miter" stroke-opacity="1.0" fill-opacity="1.0" stroke="rgb(0,0,0)" stroke-width="0.0" fill="rgb(254,198,21)" stroke-linecap="butt" stroke-miterlimit="10.0"><path d="M 586.1244,382.3395 c 0.0000,-3.7038 -3.0026,-6.7064 -6.7064 -6.7064c -3.7038,-0.0000 -6.7064,3.0026 -6.7064 6.7064c -0.0000,3.7038 3.0026,6.7064 6.7064 6.7064c 3.7038,0.0000 6.7064,-3.0026 6.7064 -6.7064Z"/></g><g stroke-linejoin="miter" stroke-opacity="1.0" fill-opacity="1.0" stroke="rgb(0,0,0)" stroke-width="0.0" fill="rgb(254,198,21)" stroke-linecap="butt" stroke-miterlimit="10.0"><path d="M 568.4759,337.2895 c 0.0000,-3.7038 -3.0026,-6.7064 -6.7064 -6.7064c -3.7038,-0.0000 -6.7064,3.0026 -6.7064 6.7064c -0.0000,3.7038 3.0026,6.7064 6.7064 6.7064c 3.7038,0.0000 6.7064,-3.0026 6.7064 -6.7064Z"/></g><g stroke-linejoin="miter" stroke-opacity="1.0" fill-opacity="1.0" stroke="rgb(0,0,0)" stroke-width="0.0" fill="rgb(254,198,21)" stroke-linecap="butt" stroke-miterlimit="10.0"><path d="M 550.8275,296.8839 c 0.0000,-3.7038 -3.0026,-6.7064 -6.7064 -6.7064c -3.7038,-0.0000 -6.7064,3.0026 -6.7064 6.7064c -0.0000,3.7038 3.0026,6.7064 6.7064 6.7064c 3.7038,0.0000 6.7064,-3.0026 6.7064 -6.7064Z"/></g><g stroke-linejoin="miter" stroke-opacity="1.0" fill-opacity="1.0" stroke="rgb(0,0,0)" stroke-width="0.0" fill="rgb(254,198,21)" stroke-linecap="butt" stroke-miterlimit="10.0"><path d="M 533.1791,261.1226 c 0.0000,-3.7038 -3.0026,-6.7064 -6.7064 -6.7064c -3.7038,-0.0000 -6.7064,3.0026 -6.7064 6.7064c -0.0000,3.7038 3.0026,6.7064 6.7064 6.7064c 3.7038,0.0000 6.7064,-3.0026 6.7064 -6.7064Z"/></g><g stroke-linejoin="miter" stroke-opacity="1.0" fill-opacity="1.0" stroke="rgb(0,0,0)" stroke-width="0.0" fill="rgb(254,198,21)" stroke-linecap="butt" stroke-miterlimit="10.0"><path d="M 515.5306,230.0056 c 0.0000,-3.7038 -3.0026,-6.7064 -6.7064 -6.7064c -3.7038,-0.0000 -6.7064,3.0026 -6.7064 6.7064c -0.0000,3.7038 3.0026,6.7064 6.7064 6.7064c 3.7038,0.0000 6.7064,-3.0026 6.7064 -6.7064Z"/></g><g stroke-linejoin="miter" stroke-opacity="1.0" fill-opacity="1.0" stroke="rgb(0,0,0)" stroke-width="0.0" fill="rgb(254,198,21)" stroke-linecap="butt" stroke-miterlimit="10.0"><path d="M 497.8822,203.5329 c 0.0000,-3.7038 -3.0026,-6.7064 -6.7064 -6.7064c -3.7038,-0.0000 -6.7064,3.0026 -6.7064 6.7064c -0.0000,3.7038 3.0026,6.7064 6.7064 6.7064c 3.7038,0.0000 6.7064,-3.0026 6.7064 -6.7064Z"/></g><g stroke-linejoin="miter" stroke-opacity="1.0" fill-opacity="1.0" stroke="rgb(0,0,0)" stroke-width="0.0" fill="rgb(254,198,21)" stroke-linecap="butt" stroke-miterlimit="10.0"><path d="M 480.2337,181.7046 c 0.0000,-3.7038 -3.0026,-6.7064 -6.7064 -6.7064c -3.7038,-0.0000 -6.7064,3.0026 -6.7064 6.7064c -0.0000,3.7038 3.0026,6.7064 6.7064 6.7064c 3.7038,0.0000 6.7064,-3.0026 6.7064 -6.7064Z"/></g><g stroke-linejoin="miter" stroke-opacity="1.0" fill-opacity="1.0" stroke="rgb(0,0,0)" stroke-width="0.0" fill="rgb(254,198,21)" stroke-linecap="butt" stroke-miterlimit="10.0"><path d="M 462.5853,164.5206 c 0.0000,-3.7038 -3.0026,-6.7064 -6.7064 -6.7064c -3.7038,-0.0000 -6.7064,3.0026 -6.7064 6.7064c -0.0000,3.7038 3.0026,6.7064 6.7064 6.7064c 3.7038,0.0000 6.7064,-3.0026 6.7064 -6.7064Z"/></g><g stroke-linejoin="miter" stroke-opacity="1.0" fill-opacity="1.0" stroke="rgb(0,0,0)" stroke-width="0.0" fill="rgb(254,198,21)" stroke-linecap="butt" stroke-miterlimit="10.0"><path d="M 444.9369,151.9809 c 0.0000,-3.7038 -3.0026,-6.7064 -6.7064 -6.7064c -3.7038,-0.0000 -6.7064,3.0026 -6.7064 6.7064c -0.0000,3.7038 3.0026,6.7064 6.7064 6.7064c 3.7038,0.0000 6.7064,-3.0026 6.7064 -6.7064Z"/></g><g stroke-linejoin="miter" stroke-opacity="1.0" fill-opacity="1.0" stroke="rgb(0,0,0)" stroke-width="0.0" fill="rgb(254,198,21)" stroke-linecap="butt" stroke-miterlimit="10.0"><path d="M 427.2884,144.0856 c 0.0000,-3.7038 -3.0026,-6.7064 -6.7064 -6.7064c -3.7038,-0.0000 -6.7064,3.0026 -6.7064 6.7064c -0.0000,3.7038 3.0026,6.7064 6.7064 6.7064c 3.7038,0.0000 6.7064,-3.0026 6.7064 -6.7064Z"/></g><g stroke-linejoin="miter" stroke-opacity="1.0" fill-opacity="1.0" stroke="rgb(0,0,0)" stroke-width="0.0" fill="rgb(254,198,21)" stroke-linecap="butt" stroke-miterlimit="10.0"><path d="M 409.6400,140.8345 c 0.0000,-3.7038 -3.0026,-6.7064 -6.7064 -6.7064c -3.7038,-0.0000 -6.7064,3.0026 -6.7064 6.7064c -0.0000,3.7038 3.0026,6.7064 6.7064 6.7064c 3.7038,0.0000 6.7064,-3.0026 6.7064 -6.7064Z"/></g><g stroke-linejoin="miter" stroke-opacity="1.0" fill-opacity="1.0" stroke="rgb(0,0,0)" stroke-width="0.0" fill="rgb(254,198,21)" stroke-linecap="butt" stroke-miterlimit="10.0"><path d="M 391.9916,142.2278 c 0.0000,-3.7038 -3.0026,-6.7064 -6.7064 -6.7064c -3.7038,-0.0000 -6.7064,3.0026 -6.7064 6.7064c -0.0000,3.7038 3.0026,6.7064 6.7064 6.7064c 3.7038,0.0000 6.7064,-3.0026 6.7064 -6.7064Z"/></g><g stroke-linejoin="miter" stroke-opacity="1.0" fill-opacity="1.0" stroke="rgb(0,0,0)" stroke-width="0.0" fill="rgb(254,198,21)" stroke-linecap="butt" stroke-miterlimit="10.0"><path d="M 374.3431,148.2655 c 0.0000,-3.7038 -3.0026,-6.7064 -6.7064 -6.7064c -3.7038,-0.0000 -6.7064,3.0026 -6.7064 6.7064c -0.0000,3.7038 3.0026,6.7064 6.7064 6.7064c 3.7038,0.0000 6.7064,-3.0026 6.7064 -6.7064Z"/></g><g stroke-linejoin="miter" stroke-opacity="1.0" fill-opacity="1.0" font-size="201.19219846133484px" font-style="italic" stroke="rgb(0,0,0)" stroke-width="3.107607685365718" fill="rgb(0,128,0)" stroke-linecap="butt" stroke-miterlimit="10.0"><text dominant-baseline="middle" transform="matrix(1.0000,0.0000,0.0000,1.0000,332.3398,174.2737)" stroke="none" text-anchor="middle">τ</text></g><g stroke-linejoin="miter" stroke-opacity="1.0" fill-opacity="1.0" font-size="100.59609923066742px" font-style="italic" stroke="rgb(0,0,0)" stroke-width="3.107607685365718" fill="rgb(255,0,0)" stroke-linecap="butt" stroke-miterlimit="10.0"><text dominant-baseline="middle" transform="matrix(1.0000,0.0000,0.0000,1.0000,667.6602,677.2542)" stroke="none" text-anchor="middle">π</text></g></svg>