<?xml version="1.0" encoding="UTF-8"?>
<!DOCTYPE svg PUBLIC "-//W3C//DTD SVG 1.1//EN"
    "http://www.w3.org/Graphics/SVG/1.1/DTD/svg11.dtd"><svg xmlns="http://www.w3.org/2000/svg" height="1000.0000" stroke-opacity="1" viewBox="0 0 1000 1000" font-size="1" width="1000.0000" xmlns:xlink="http://www.w3.org/1999/xlink" stroke="rgb(0,0,0)" version="1.1"><defs></defs><g stroke-linejoin="miter" stroke-opacity="1.0" fill-opacity="1.0" stroke="rgb(0,0,0)" stroke-width="3.001173677408172" fill="rgb(0,128,0)" stroke-linecap="butt" stroke-miterlimit="10.0"><path d="M 385.1966,83.3333 c 0.0000,-46.0237 -37.3096,-83.3333 -83.3333 -83.3333c -46.0237,-0.0000 -83.3333,37.3096 -83.3333 83.3333c -0.0000,46.0237 37.3096,83.3333 83.3333 83.3333c 46.0237,0.0000 83.3333,-37.3096 83.3333 -83.3333Z"/></g><g stroke-linejoin="miter" stroke-opacity="1.0" fill-opacity="1.0" stroke="rgb(0,0,0)" stroke-width="3.001173677408172" fill="rgb(0,128,0)" stroke-linecap="butt" stroke-miterlimit="10.0"><path d="M 630.1071,162.9096 c 0.0000,-46.0237 -37.3096,-83.3333 -83.3333 -83.3333c -46.0237,-0.0000 -83.3333,37.3096 -83.3333 83.3333c -0.0000,46.0237 37.3096,83.3333 83.3333 83.3333c 46.0237,0.0000 83.3333,-37.3096 83.3333 -83.3333Z"/></g><g stroke-linejoin="miter" stroke-opacity="1.0" fill-opacity="1.0" stroke="rgb(0,0,0)" stroke-width="3.001173677408172" fill="rgb(0,128,0)" stroke-linecap="butt" stroke-miterlimit="10.0"><path d="M 781.4701,371.2429 c 0.0000,-46.0237 -37.3096,-83.3333 -83.3333 -83.3333c -46.0237,-0.0000 -83.3333,37.3096 -83.3333 83.3333c -0.0000,46.0237 37.3096,83.3333 83.3333 83.3333c 46.0237,0.0000 83.3333,-37.3096 83.3333 -83.3333Z"/></g><g stroke-linejoin="miter" stroke-opacity="1.0" fill-opacity="1.0" stroke="rgb(0,0,0)" stroke-width="3.001173677408172" fill="rgb(0,128,0)" stroke-linecap="butt" stroke-miterlimit="10.0"><path d="M 781.4701,628.7571 c 0.0000,-46.0237 -37.3096,-83.3333 -83.3333 -83.3333c -46.0237,-0.0000 -83.3333,37.3096 -83.3333 83.3333c -0.0000,46.0237 37.3096,83.3333 83.3333 83.3333c 46.0237,0.0000 83.3333,-37.3096 83.3333 -83.3333Z"/></g><g stroke-linejoin="miter" stroke-opacity="1.0" fill-opacity="1.0" stroke="rgb(0,0,0)" stroke-width="3.001173677408172" fill="rgb(0,128,0)" stroke-linecap="butt" stroke-miterlimit="10.0"><path d="M 630.1071,837.0904 c 0.0000,-46.0237 -37.3096,-83.3333 -83.3333 -83.3333c -46.0237,-0.0000 -83.3333,37.3096 -83.3333 83.3333c -0.0000,46.0237 37.3096,83.3333 83.3333 83.3333c 46.0237,0.0000 83.3333,-37.3096 83.3333 -83.3333Z"/></g><g stroke-linejoin="miter" stroke-opacity="1.0" fill-opacity="1.0" stroke="rgb(0,0,0)" stroke-width="3.001173677408172" fill="rgb(0,128,0)" stroke-linecap="butt" stroke-miterlimit="10.0"><path d="M 385.1966,916.6667 c 0.0000,-46.0237 -37.3096,-83.3333 -83.3333 -83.3333c -46.0237,-0.0000 -83.3333,37.3096 -83.3333 83.3333c -0.0000,46.0237 37.3096,83.3333 83.3333 83.3333c 46.0237,0.0000 83.3333,-37.3096 83.3333 -83.3333Z"/></g></svg>