<?xml version="1.0" encoding="UTF-8"?>
<!DOCTYPE svg PUBLIC "-//W3C//DTD SVG 1.1//EN"
    "http://www.w3.org/Graphics/SVG/1.1/DTD/svg11.dtd"><svg xmlns="http://www.w3.org/2000/svg" height="1000.0000" stroke-opacity="1" viewBox="0 0 1000 1000" font-size="1" width="1000.0000" xmlns:xlink="http://www.w3.org/1999/xlink" stroke="rgb(0,0,0)" version="1.1"><defs></defs><g stroke-linejoin="miter" stroke-opacity="1.0" fill-opacity="1.0" stroke="rgb(0,0,0)" stroke-width="0.0" fill="rgb(0,0,255)" stroke-linecap="butt" stroke-miterlimit="10.0"><path d="M 881.2889,698.8584 c 0.0000,-8.1955 -6.6438,-14.8393 -14.8393 -14.8393c -8.1955,-0.0000 -14.8393,6.6438 -14.8393 14.8393c -0.0000,8.1955 6.6438,14.8393 14.8393 14.8393c 8.1955,0.0000 14.8393,-6.6438 14.8393 -14.8393Z"/></g><g stroke-linejoin="miter" stroke-opacity="1.0" fill-opacity="1.0" stroke="rgb(0,0,0)" stroke-width="0.0" fill="rgb(0,0,255)" stroke-linecap="butt" stroke-miterlimit="10.0"><path d="M 29.6785,653.7730 c 0.0000,-8.1955 -6.6438,-14.8393 -14.8393 -14.8393c -8.1955,-0.0000 -14.8393,6.6438 -14.8393 14.8393c -0.0000,8.1955 6.6438,14.8393 14.8393 14.8393c 8.1955,0.0000 14.8393,-6.6438 14.8393 -14.8393Z"/></g><g stroke-linejoin="miter" stroke-opacity="1.0" fill-opacity="1.0" stroke="rgb(0,0,0)" stroke-width="0.0" fill="rgb(0,0,255)" stroke-linecap="butt" stroke-miterlimit="10.0"><path d="M 621.1005,139.3105 c 0.0000,-8.1955 -6.6438,-14.8393 -14.8393 -14.8393c -8.1955,-0.0000 -14.8393,6.6438 -14.8393 14.8393c -0.0000,8.1955 6.6438,14.8393 14.8393 14.8393c 8.1955,0.0000 14.8393,-6.6438 14.8393 -14.8393Z"/></g><g stroke-linejoin="miter" stroke-opacity="1.0" fill-opacity="1.0" stroke="rgb(0,0,0)" stroke-width="0.0" fill="rgb(0,0,255)" stroke-linecap="butt" stroke-miterlimit="10.0"><path d="M 985.2106,787.9666 c 0.0000,-8.1955 -6.6438,-14.8393 -14.8393 -14.8393c -8.1955,-0.0000 -14.8393,6.6438 -14.8393 14.8393c -0.0000,8.1955 6.6438,14.8393 14.8393 14.8393c 8.1955,0.0000 14.8393,-6.6438 14.8393 -14.8393Z"/></g><g stroke-linejoin="miter" stroke-opacity="1.0" fill-opacity="1.0" stroke="rgb(0,0,0)" stroke-width="0.0" fill="rgb(0,0,255)" stroke-linecap="butt" stroke-miterlimit="10.0"><path d="M 884.9028,264.8370 c 0.0000,-8.1955 -6.6438,-14.8393 -14.8393 -14.8393c -8.1955,-0.0000 -14.8393,6.6438 -14.8393 14.8393c -0.0000,8.1955 6.6438,14.8393 14.8393 14.8393c 8.1955,0.0000 14.8393,-6.6438 14.8393 -14.8393Z"/></g><g stroke-linejoin="miter" stroke-opacity="1.0" fill-opacity="1.0" stroke="rgb(0,0,0)" stroke-width="0.0" fill="rgb(255,0,0)" stroke-linecap="butt" stroke-miterlimit="10.0"><path d="M 826.4730,402.5577 c 0.0000,-8.1955 -6.6438,-14.8393 -14.8393 -14.8393c -8.1955,-0.0000 -14.8393,6.6438 -14.8393 14.8393c -0.0000,8.1955 6.6438,14.8393 14.8393 14.8393c 8.1955,0.0000 14.8393,-6.6438 14.8393 -14.8393Z"/></g><g stroke-linejoin="miter" stroke-opacity="1.0" fill-opacity="1.0" stroke="rgb(0,0,0)" stroke-width="0.0" fill="rgb(0,0,255)" stroke-linecap="butt" stroke-miterlimit="10.0"><path d="M 109.9984,292.4019 c 0.0000,-8.1955 -6.6438,-14.8393 -14.8393 -14.8393c -8.1955,-0.0000 -14.8393,6.6438 -14.8393 14.8393c -0.0000,8.1955 6.6438,14.8393 14.8393 14.8393c 8.1955,0.0000 14.8393,-6.6438 14.8393 -14.8393Z"/></g><g stroke-linejoin="miter" stroke-opacity="1.0" fill-opacity="1.0" stroke="rgb(0,0,0)" stroke-width="0.0" fill="rgb(255,0,0)" stroke-linecap="butt" stroke-miterlimit="10.0"><path d="M 462.7307,389.9389 c 0.0000,-8.1955 -6.6438,-14.8393 -14.8393 -14.8393c -8.1955,-0.0000 -14.8393,6.6438 -14.8393 14.8393c -0.0000,8.1955 6.6438,14.8393 14.8393 14.8393c 8.1955,0.0000 14.8393,-6.6438 14.8393 -14.8393Z"/></g><g stroke-linejoin="miter" stroke-opacity="1.0" fill-opacity="1.0" stroke="rgb(0,0,0)" stroke-width="0.0" fill="rgb(0,0,255)" stroke-linecap="butt" stroke-miterlimit="10.0"><path d="M 350.6778,159.4539 c 0.0000,-8.1955 -6.6438,-14.8393 -14.8393 -14.8393c -8.1955,-0.0000 -14.8393,6.6438 -14.8393 14.8393c -0.0000,8.1955 6.6438,14.8393 14.8393 14.8393c 8.1955,0.0000 14.8393,-6.6438 14.8393 -14.8393Z"/></g><g stroke-linejoin="miter" stroke-opacity="1.0" fill-opacity="1.0" stroke="rgb(0,0,0)" stroke-width="0.0" fill="rgb(255,0,0)" stroke-linecap="butt" stroke-miterlimit="10.0"><path d="M 792.1776,322.9154 c 0.0000,-8.1955 -6.6438,-14.8393 -14.8393 -14.8393c -8.1955,-0.0000 -14.8393,6.6438 -14.8393 14.8393c -0.0000,8.1955 6.6438,14.8393 14.8393 14.8393c 8.1955,0.0000 14.8393,-6.6438 14.8393 -14.8393Z"/></g><g stroke-linejoin="miter" stroke-opacity="1.0" fill-opacity="1.0" stroke="rgb(0,0,0)" stroke-width="0.0" fill="rgb(0,0,255)" stroke-linecap="butt" stroke-miterlimit="10.0"><path d="M 911.2518,683.4856 c 0.0000,-8.1955 -6.6438,-14.8393 -14.8393 -14.8393c -8.1955,-0.0000 -14.8393,6.6438 -14.8393 14.8393c -0.0000,8.1955 6.6438,14.8393 14.8393 14.8393c 8.1955,0.0000 14.8393,-6.6438 14.8393 -14.8393Z"/></g><g stroke-linejoin="miter" stroke-opacity="1.0" fill-opacity="1.0" stroke="rgb(0,0,0)" stroke-width="0.0" fill="rgb(0,0,255)" stroke-linecap="butt" stroke-miterlimit="10.0"><path d="M 202.6746,879.4977 c 0.0000,-8.1955 -6.6438,-14.8393 -14.8393 -14.8393c -8.1955,-0.0000 -14.8393,6.6438 -14.8393 14.8393c -0.0000,8.1955 6.6438,14.8393 14.8393 14.8393c 8.1955,0.0000 14.8393,-6.6438 14.8393 -14.8393Z"/></g><g stroke-linejoin="miter" stroke-opacity="1.0" fill-opacity="1.0" stroke="rgb(0,0,0)" stroke-width="0.0" fill="rgb(255,0,0)" stroke-linecap="butt" stroke-miterlimit="10.0"><path d="M 709.8028,693.0334 c 0.0000,-8.1955 -6.6438,-14.8393 -14.8393 -14.8393c -8.1955,-0.0000 -14.8393,6.6438 -14.8393 14.8393c -0.0000,8.1955 6.6438,14.8393 14.8393 14.8393c 8.1955,0.0000 14.8393,-6.6438 14.8393 -14.8393Z"/></g><g stroke-linejoin="miter" stroke-opacity="1.0" fill-opacity="1.0" stroke="rgb(0,0,0)" stroke-width="0.0" fill="rgb(255,0,0)" stroke-linecap="butt" stroke-miterlimit="10.0"><path d="M 650.9810,314.8511 c 0.0000,-8.1955 -6.6438,-14.8393 -14.8393 -14.8393c -8.1955,-0.0000 -14.8393,6.6438 -14.8393 14.8393c -0.0000,8.1955 6.6438,14.8393 14.8393 14.8393c 8.1955,0.0000 14.8393,-6.6438 14.8393 -14.8393Z"/></g><g stroke-linejoin="miter" stroke-opacity="1.0" fill-opacity="1.0" stroke="rgb(0,0,0)" stroke-width="0.0" fill="rgb(0,0,255)" stroke-linecap="butt" stroke-miterlimit="10.0"><path d="M 1000.0000,507.3174 c 0.0000,-8.1955 -6.6438,-14.8393 -14.8393 -14.8393c -8.1955,-0.0000 -14.8393,6.6438 -14.8393 14.8393c -0.0000,8.1955 6.6438,14.8393 14.8393 14.8393c 8.1955,0.0000 14.8393,-6.6438 14.8393 -14.8393Z"/></g><g stroke-linejoin="miter" stroke-opacity="1.0" fill-opacity="1.0" stroke="rgb(0,0,0)" stroke-width="0.0" fill="rgb(0,0,255)" stroke-linecap="butt" stroke-miterlimit="10.0"><path d="M 167.8648,929.9823 c 0.0000,-8.1955 -6.6438,-14.8393 -14.8393 -14.8393c -8.1955,-0.0000 -14.8393,6.6438 -14.8393 14.8393c -0.0000,8.1955 6.6438,14.8393 14.8393 14.8393c 8.1955,0.0000 14.8393,-6.6438 14.8393 -14.8393Z"/></g><g stroke-linejoin="miter" stroke-opacity="1.0" fill-opacity="1.0" stroke="rgb(0,0,0)" stroke-width="0.0" fill="rgb(0,0,255)" stroke-linecap="butt" stroke-miterlimit="10.0"><path d="M 97.0756,72.7493 c 0.0000,-8.1955 -6.6438,-14.8393 -14.8393 -14.8393c -8.1955,-0.0000 -14.8393,6.6438 -14.8393 14.8393c -0.0000,8.1955 6.6438,14.8393 14.8393 14.8393c 8.1955,0.0000 14.8393,-6.6438 14.8393 -14.8393Z"/></g><g stroke-linejoin="miter" stroke-opacity="1.0" fill-opacity="1.0" stroke="rgb(0,0,0)" stroke-width="0.0" fill="rgb(255,0,0)" stroke-linecap="butt" stroke-miterlimit="10.0"><path d="M 213.6817,467.2726 c 0.0000,-8.1955 -6.6438,-14.8393 -14.8393 -14.8393c -8.1955,-0.0000 -14.8393,6.6438 -14.8393 14.8393c -0.0000,8.1955 6.6438,14.8393 14.8393 14.8393c 8.1955,0.0000 14.8393,-6.6438 14.8393 -14.8393Z"/></g><g stroke-linejoin="miter" stroke-opacity="1.0" fill-opacity="1.0" stroke="rgb(0,0,0)" stroke-width="0.0" fill="rgb(0,0,255)" stroke-linecap="butt" stroke-miterlimit="10.0"><path d="M 707.3643,70.0177 c 0.0000,-8.1955 -6.6438,-14.8393 -14.8393 -14.8393c -8.1955,-0.0000 -14.8393,6.6438 -14.8393 14.8393c -0.0000,8.1955 6.6438,14.8393 14.8393 14.8393c 8.1955,0.0000 14.8393,-6.6438 14.8393 -14.8393Z"/></g><g stroke-linejoin="miter" stroke-opacity="1.0" fill-opacity="1.0" stroke="rgb(0,0,0)" stroke-width="0.0" fill="rgb(255,0,0)" stroke-linecap="butt" stroke-miterlimit="10.0"><path d="M 248.3966,648.1885 c 0.0000,-8.1955 -6.6438,-14.8393 -14.8393 -14.8393c -8.1955,-0.0000 -14.8393,6.6438 -14.8393 14.8393c -0.0000,8.1955 6.6438,14.8393 14.8393 14.8393c 8.1955,0.0000 14.8393,-6.6438 14.8393 -14.8393Z"/></g><g stroke-linejoin="miter" stroke-opacity="1.0" fill-opacity="0.0" stroke="rgb(0,0,0)" stroke-width="3.7728356883949945" fill="rgb(0,0,0)" stroke-linecap="butt" stroke-miterlimit="10.0"><path d="M 945.7079,338.5746 c -59.2649,-123.0648 -306.8359,-126.7411 -552.9655 -8.2114c -246.1295,118.5297 -397.6133,314.3808 -338.3484 437.4455c 59.2649,123.0648 306.8359,126.7411 552.9655 8.2114c 246.1295,-118.5297 397.6133,-314.3808 338.3484 -437.4455Z"/></g></svg>